<?xml version="1.0" encoding="UTF-8" standalone="no"?>
<!-- Created with Inkscape (http://www.inkscape.org/) -->

<svg
   xmlns:dc="http://purl.org/dc/elements/1.1/"
   xmlns:cc="http://creativecommons.org/ns#"
   xmlns:rdf="http://www.w3.org/1999/02/22-rdf-syntax-ns#"
   xmlns:svg="http://www.w3.org/2000/svg"
   xmlns="http://www.w3.org/2000/svg"
   xmlns:sodipodi="http://sodipodi.sourceforge.net/DTD/sodipodi-0.dtd"
   xmlns:inkscape="http://www.inkscape.org/namespaces/inkscape"
   width="1500"
   height="750"
   viewBox="0 0 1500 750"
   id="svg2"
   version="1.1"
   inkscape:version="0.91 r13725"
   sodipodi:docname="logoOnWhiteBg.svg">
  <defs
     id="defs4">
    <inkscape:path-effect
       effect="spiro"
       id="path-effect4228"
       is_visible="true" />
    <inkscape:path-effect
       effect="spiro"
       id="path-effect4172"
       is_visible="true" />
    <inkscape:path-effect
       effect="spiro"
       id="path-effect4168"
       is_visible="true" />
    <inkscape:path-effect
       effect="spiro"
       id="path-effect4164"
       is_visible="true" />
    <inkscape:path-effect
       effect="spiro"
       id="path-effect4154"
       is_visible="true" />
    <inkscape:path-effect
       effect="spiro"
       id="path-effect4150"
       is_visible="true" />
    <inkscape:path-effect
       effect="spiro"
       id="path-effect4150-7"
       is_visible="true" />
    <inkscape:path-effect
       effect="spiro"
       id="path-effect4150-8"
       is_visible="true" />
    <inkscape:path-effect
       effect="spiro"
       id="path-effect4150-1"
       is_visible="true" />
    <filter
       style="color-interpolation-filters:sRGB"
       inkscape:label="Blur"
       id="filter4309">
      <feGaussianBlur
         stdDeviation="10.95 10.9464"
         result="fbSourceGraphic"
         id="feGaussianBlur4311" />
      <feColorMatrix
         result="fbSourceGraphicAlpha"
         in="fbSourceGraphic"
         values="0 0 0 -1 0 0 0 0 -1 0 0 0 0 -1 0 0 0 0 1 0"
         id="feColorMatrix4317" />
      <feGaussianBlur
         id="feGaussianBlur4319"
         stdDeviation="10.95 10.95"
         result="blur"
         in="fbSourceGraphic" />
    </filter>
    <filter
       style="color-interpolation-filters:sRGB"
       inkscape:label="Blur"
       id="filter4313">
      <feGaussianBlur
         stdDeviation="10.95 10.9464"
         result="fbSourceGraphic"
         id="feGaussianBlur4315" />
      <feColorMatrix
         result="fbSourceGraphicAlpha"
         in="fbSourceGraphic"
         values="0 0 0 -1 0 0 0 0 -1 0 0 0 0 -1 0 0 0 0 1 0"
         id="feColorMatrix4321" />
      <feGaussianBlur
         id="feGaussianBlur4323"
         stdDeviation="10.95 10.95"
         result="blur"
         in="fbSourceGraphic" />
    </filter>
    <filter
       style="color-interpolation-filters:sRGB"
       inkscape:label="Blur"
       id="filter4359">
      <feGaussianBlur
         stdDeviation="5.21781 5.74"
         result="fbSourceGraphic"
         id="feGaussianBlur4361" />
      <feColorMatrix
         result="fbSourceGraphicAlpha"
         in="fbSourceGraphic"
         values="0 0 0 -1 0 0 0 0 -1 0 0 0 0 -1 0 0 0 0 1 0"
         id="feColorMatrix4363" />
      <feGaussianBlur
         id="feGaussianBlur4365"
         stdDeviation="5.22 5.74"
         result="fbSourceGraphic"
         in="fbSourceGraphic" />
      <feColorMatrix
         result="fbSourceGraphicAlpha"
         in="fbSourceGraphic"
         values="0 0 0 -1 0 0 0 0 -1 0 0 0 0 -1 0 0 0 0 1 0"
         id="feColorMatrix4367" />
      <feGaussianBlur
         id="feGaussianBlur4369"
         stdDeviation="5.22 5.74"
         result="blur"
         in="fbSourceGraphic" />
    </filter>
    <filter
       style="color-interpolation-filters:sRGB;"
       inkscape:label="Blur"
       id="filter4772">
      <feGaussianBlur
         stdDeviation="10 10"
         result="blur"
         id="feGaussianBlur4774" />
    </filter>
  </defs>
  <sodipodi:namedview
     id="base"
     pagecolor="#ffffff"
     bordercolor="#666666"
     borderopacity="1.0"
     inkscape:pageopacity="0.0"
     inkscape:pageshadow="2"
     inkscape:zoom="0.5"
     inkscape:cx="1031.7217"
     inkscape:cy="-9.6221994"
     inkscape:document-units="px"
     inkscape:current-layer="layer1"
     showgrid="false"
     units="px"
     showguides="false"
     inkscape:window-width="1920"
     inkscape:window-height="1017"
     inkscape:window-x="1912"
     inkscape:window-y="-8"
     inkscape:window-maximized="1" />
  <metadata
     id="metadata7">
    <rdf:RDF>
      <cc:Work
         rdf:about="">
        <dc:format>image/svg+xml</dc:format>
        <dc:type
           rdf:resource="http://purl.org/dc/dcmitype/StillImage" />
        <dc:title></dc:title>
      </cc:Work>
    </rdf:RDF>
  </metadata>
  <g
     inkscape:label="Layer 1"
     inkscape:groupmode="layer"
     id="layer1"
     transform="translate(0,-302.36216)">
    <text
       xml:space="preserve"
       style="font-style:normal;font-weight:normal;font-size:106.0267334px;line-height:125%;font-family:sans-serif;letter-spacing:0px;word-spacing:0px;fill:#808080;fill-opacity:1;stroke:#0066ff;stroke-width:0.9787932px;stroke-linecap:butt;stroke-linejoin:miter;stroke-opacity:1;filter:url(#filter4772)"
       x="617.58936"
       y="631.09711"
       id="text4174-5"
       sodipodi:linespacing="125%"
       transform="matrix(1.012598,0,0,1.0308157,-121.48492,-79.197421)"><tspan
         sodipodi:role="line"
         id="tspan4176-5"
         x="617.58936"
         y="631.09711"
         style="font-style:normal;font-variant:normal;font-weight:bold;font-stretch:normal;font-size:212.0534668px;font-family:sans-serif;-inkscape-font-specification:'sans-serif Bold';fill:#808080;stroke:#0066ff;stroke-width:0.9787932px">ALCRON</tspan></text>
    <path
       style="opacity:1;fill:#808080;fill-opacity:1;stroke:none;stroke-width:10;stroke-linecap:butt;stroke-linejoin:miter;stroke-miterlimit:4;stroke-dasharray:none;stroke-dashoffset:0;stroke-opacity:1;filter:url(#filter4309)"
       d="M 439.19455,316.96877 C 222.04063,316.96861 46.002611,490.58557 46.002921,704.7528 c 0.0495,146.757 84.097389,280.913 217.154119,346.6181 L 376.81388,809.0016 C 253.09886,795.5445 185.19725,745.2928 185.07572,625.24504 c 5.5e-4,-168.5021 119.68626,-305.09966 299.04578,-305.09927 1.28627,0.0533 2.57219,0.11376 3.8577,0.18142 -16.17514,-2.11672 -32.4682,-3.23836 -48.78465,-3.35842 z"
       id="path4138-5"
       inkscape:connector-curvature="0"
       sodipodi:nodetypes="cccccccc" />
    <path
       style="fill:#808080;fill-rule:evenodd;stroke:none;stroke-width:1px;stroke-linecap:butt;stroke-linejoin:miter;stroke-opacity:1;filter:url(#filter4313)"
       d="m 288.75852,771.5004 c 16.03919,4.61549 32.26406,8.5857 48.62219,11.8978 16.09532,3.25889 32.31964,5.88066 48.6222,7.8571 l 112.64795,259.7041 c 39.5261,3.5274 80.03005,-4.7331 115.01806,-23.4573 34.98801,-18.7242 64.32986,-47.84226 83.32132,-82.6859 18.45973,-33.86808 27.09032,-73.02047 24.58099,-111.51088 -2.50933,-38.49041 -16.15024,-76.19084 -38.851,-107.37552 -22.70077,-31.18467 -54.38589,-55.74988 -90.24318,-69.96477 -35.85729,-14.2149 -75.76751,-18.0322 -113.66925,-10.87216 45.55563,-2.60253 91.83876,17.98789 120.40811,53.56711 28.56934,35.57922 38.67795,85.217 26.29808,129.13542 -9.72128,34.48691 -32.84067,65.00898 -63.40554,83.7076 L 451.31982,650.31696 c -32.87254,1.90431 -65.17798,12.82438 -92.46411,31.25526 -32.02079,21.62898 -56.93874,53.5964 -70.09719,89.92818 z"
       id="path4148-5"
       inkscape:path-effect="#path-effect4150-1"
       inkscape:original-d="m 288.75852,771.5004 c 0,0 32.4148,8.6053 48.62219,11.8978 16.2074,3.2925 48.6222,7.8571 48.6222,7.8571 l 112.64795,259.7041 c 0,0 169.64891,-70.0717 198.33938,-106.1432 C 725.68072,908.7448 478.8078,645.09287 478.8078,645.09287 c 0,0 162.44477,139.16203 146.70619,182.70253 -16.00631,44.2811 -63.40554,83.7076 -63.40554,83.7076 -29.04762,-62.381 -92.20911,-240.67749 -110.78863,-261.18604 0,0 -65.2022,11.73145 -92.46411,31.25526 -27.26191,19.52378 -70.09719,89.92818 -70.09719,89.92818 z"
       inkscape:connector-curvature="0"
       sodipodi:nodetypes="csccscsccsc" />
    <path
       style="opacity:1;fill:#0066ff;fill-opacity:1;stroke:none;stroke-width:10;stroke-linecap:butt;stroke-linejoin:miter;stroke-miterlimit:4;stroke-dasharray:none;stroke-dashoffset:0;stroke-opacity:1"
       d="M 398.90592,315.21847 C 181.752,315.21831 5.713972,488.83527 5.7142856,703.00249 5.7637502,849.75946 89.811674,983.91547 222.86841,1049.6206 L 336.52525,807.25134 C 212.81023,793.79417 144.90862,743.54252 144.78709,623.49474 c 5.5e-4,-168.5021 119.68626,-305.09966 299.04578,-305.09927 1.28627,0.0533 2.57219,0.11376 3.8577,0.18142 -16.17514,-2.11672 -32.4682,-3.23836 -48.78465,-3.35842 z"
       id="path4138"
       inkscape:connector-curvature="0"
       sodipodi:nodetypes="cccccccc" />
    <path
       style="fill:#0066ff;fill-rule:evenodd;stroke:none;stroke-width:1px;stroke-linecap:butt;stroke-linejoin:miter;stroke-opacity:1"
       d="m 248.46989,769.75013 c 16.0392,4.61546 32.26406,8.58565 48.62219,11.89775 16.09533,3.25889 32.31964,5.88066 48.6222,7.85713 l 112.64795,259.70409 c 39.5261,3.5274 80.03004,-4.7331 115.01805,-23.4573 34.98801,-18.7242 64.32986,-47.84223 83.32133,-82.68587 18.45974,-33.86808 27.09034,-73.02048 24.58101,-111.51089 -2.50933,-38.49041 -16.15024,-76.19085 -38.851,-107.37553 -22.70076,-31.18468 -54.3859,-55.74989 -90.24319,-69.96479 -35.85729,-14.21489 -75.76751,-18.0322 -113.66926,-10.87215 45.55563,-2.60254 91.83877,17.98787 120.40812,53.5671 28.56935,35.57922 38.67794,85.21701 26.29807,129.13543 -9.72128,34.4869 -32.84067,65.00896 -63.40554,83.70757 L 411.03119,648.56666 c -32.87254,1.90431 -65.17798,12.82438 -92.46411,31.25526 -32.02079,21.62899 -56.93874,53.59641 -70.09719,89.92821 z"
       id="path4148"
       inkscape:path-effect="#path-effect4150"
       inkscape:original-d="m 248.46989,769.75013 c 0,0 32.4148,8.60527 48.62219,11.89775 16.2074,3.29248 48.6222,7.85713 48.6222,7.85713 l 112.64795,259.70409 c 0,0 169.64891,-70.07174 198.33938,-106.14317 28.69048,-36.07142 -218.18244,-299.72336 -218.18244,-299.72336 0,0 162.44477,139.16206 146.70619,182.70253 -16.00631,44.28113 -63.40554,83.70757 -63.40554,83.70757 -29.04762,-62.38095 -92.20911,-240.67746 -110.78863,-261.18601 0,0 -65.2022,11.73145 -92.46411,31.25526 -27.26191,19.52381 -70.09719,89.92821 -70.09719,89.92821 z"
       inkscape:connector-curvature="0"
       sodipodi:nodetypes="csccscsccsc" />
    <text
       xml:space="preserve"
       style="font-style:normal;font-weight:normal;font-size:108.03429413px;line-height:125%;font-family:sans-serif;letter-spacing:0px;word-spacing:0px;fill:#0066ff;fill-opacity:1;stroke:#0066ff;stroke-width:0.99999994px;stroke-linecap:butt;stroke-linejoin:miter;stroke-opacity:1"
       x="485.53763"
       y="564.41791"
       id="text4174"
       sodipodi:linespacing="125%"
       transform="scale(0.99572527,1.0042931)"><tspan
         sodipodi:role="line"
         id="tspan4176"
         x="485.53763"
         y="564.41791"
         style="font-style:normal;font-variant:normal;font-weight:bold;font-stretch:normal;font-size:216.06858826px;font-family:sans-serif;-inkscape-font-specification:'sans-serif Bold';fill:#0066ff;stroke:#0066ff;stroke-width:0.99999994px">ALCRON</tspan></text>
    <path
       style="opacity:0.6;fill:#0055d4;fill-opacity:1;stroke:none;stroke-width:10;stroke-linecap:butt;stroke-linejoin:miter;stroke-miterlimit:4;stroke-dasharray:none;stroke-dashoffset:0;stroke-opacity:1"
       d="M 400.06064,318.01822 C 182.90672,318.01806 94.03767,477.66621 93.027835,675.67099 94.087492,764.84926 160.43233,887.95488 277.32662,933.45693 L 336.96568,807.19396 C 213.25066,793.73679 145.34905,743.48514 145.22752,623.43736 c 5.5e-4,-168.5021 119.68626,-305.09967 299.04578,-305.09928 1.28627,0.0533 2.57219,0.11376 3.8577,0.18142 -16.17514,-2.11672 -31.75391,-0.38122 -48.07036,-0.50128 z"
       id="path4138-7"
       inkscape:connector-curvature="0"
       sodipodi:nodetypes="cccccccc" />
    <path
       style="opacity:0.6;fill:#0055d4;fill-rule:evenodd;stroke:none;stroke-width:1px;stroke-linecap:butt;stroke-linejoin:miter;stroke-opacity:1"
       d="m 364.81197,657.24584 113.24946,259.73638 43.69653,-6.14674 -111.14577,-261.90034 c -7.71109,0.86662 -15.3929,1.99377 -23.02791,3.37889 -7.64346,1.38665 -15.24002,3.03184 -22.77231,4.93181 z"
       id="path4148-7"
       inkscape:path-effect="#path-effect4150-7"
       inkscape:original-d="m 364.81197,657.24584 113.24946,259.73638 43.69653,-6.14674 -111.14577,-261.90034 c 0,0 -12.59023,0.78586 -23.02791,3.37889 -10.41994,2.58863 -22.77231,4.93181 -22.77231,4.93181 z"
       inkscape:connector-curvature="0"
       sodipodi:nodetypes="ccccsc" />
    <path
       style="opacity:0.6;fill:#0055d4;fill-rule:evenodd;stroke:none;stroke-width:1px;stroke-linecap:butt;stroke-linejoin:miter;stroke-opacity:1"
       d="m 627.14378,983.41264 c 43.36099,-46.79692 62.83353,-114.66236 50.88112,-177.33028 -9.73803,-51.05767 -39.77488,-97.954 -82.08075,-128.15214 -42.30587,-30.19814 -96.41735,-43.36729 -147.86873,-35.98692 41.66313,0.40487 83.13478,13.0221 117.9641,35.88908 34.82932,22.86699 62.89459,55.90384 79.8303,93.9717 15.02671,33.77683 21.29855,71.40458 18.0398,108.22926 -3.25876,36.82468 -16.04103,72.76625 -36.76584,103.3793 z"
       id="path4148-4"
       inkscape:path-effect="#path-effect4150-8"
       inkscape:original-d="m 627.14378,983.41264 c 0,0 30.62901,-135.92807 50.88112,-177.33028 C 698.63416,763.95002 448.07542,641.9433 448.07542,641.9433 c 0,0 207.64539,85.51937 197.7944,129.86078 -13.50025,60.41702 -1.42736,152.2237 -18.72604,211.60856 z"
       inkscape:connector-curvature="0"
       sodipodi:nodetypes="csccc" />
  </g>
</svg>
