<?xml version="1.0" encoding="UTF-8" standalone="no"?>
<svg
   xmlns:dc="http://purl.org/dc/elements/1.1/"
   xmlns:cc="http://creativecommons.org/ns#"
   xmlns:rdf="http://www.w3.org/1999/02/22-rdf-syntax-ns#"
   xmlns:svg="http://www.w3.org/2000/svg"
   xmlns="http://www.w3.org/2000/svg"
   xmlns:sodipodi="http://sodipodi.sourceforge.net/DTD/sodipodi-0.dtd"
   xmlns:inkscape="http://www.inkscape.org/namespaces/inkscape"
   width="200"
   height="30"
   viewBox="0 0 200 30.000001"
   id="svg2"
   version="1.1"
   inkscape:version="0.91 r13725"
   sodipodi:docname="companyName.svg">
  <defs
     id="defs4" />
  <sodipodi:namedview
     id="base"
     pagecolor="#ffffff"
     bordercolor="#666666"
     borderopacity="1.0"
     inkscape:pageopacity="0.0"
     inkscape:pageshadow="2"
     inkscape:zoom="5.6"
     inkscape:cx="101.0494"
     inkscape:cy="-0.49655891"
     inkscape:document-units="px"
     inkscape:current-layer="layer1"
     showgrid="true"
     units="px"
     inkscape:window-width="1920"
     inkscape:window-height="1017"
     inkscape:window-x="-8"
     inkscape:window-y="-8"
     inkscape:window-maximized="1">
    <inkscape:grid
       type="xygrid"
       id="grid4135" />
  </sodipodi:namedview>
  <metadata
     id="metadata7">
    <rdf:RDF>
      <cc:Work
         rdf:about="">
        <dc:format>image/svg+xml</dc:format>
        <dc:type
           rdf:resource="http://purl.org/dc/dcmitype/StillImage" />
        <dc:title />
      </cc:Work>
    </rdf:RDF>
  </metadata>
  <g
     inkscape:label="Layer 1"
     inkscape:groupmode="layer"
     id="layer1"
     transform="translate(0,-1022.3622)">
    <path
       style="font-style:normal;font-weight:normal;font-size:39.63953018px;line-height:125%;font-family:sans-serif;letter-spacing:0px;word-spacing:0px;fill-opacity:1;stroke-width:1px;stroke-linecap:butt;stroke-linejoin:miter;stroke-opacity:1;fill:#ffc107;"
       d="M 16.416016 2.0136719 L 13.546875 15.853516 L 10.169922 2.0546875 L 2.390625 2.0546875 L 8.2441406 28.214844 L 16.021484 28.214844 L 20.304688 9.7753906 L 24.546875 28.214844 L 32.324219 28.214844 L 38.177734 2.0546875 L 30.439453 2.0546875 L 27.257812 15.853516 L 24.154297 2.0136719 L 16.416016 2.0136719 z M 46.808594 2.0136719 C 45.892007 2.0136719 44.988055 2.2008854 44.097656 2.5742188 C 43.233446 2.9208854 42.487892 3.4805729 41.859375 4.2539062 C 41.257046 5.0005729 40.850131 6.121901 40.640625 7.6152344 C 40.588249 8.0952344 40.549626 8.7742968 40.523438 9.6542969 L 40.523438 28.214844 L 48.300781 28.214844 L 48.300781 18.09375 L 56.943359 18.09375 L 56.943359 28.214844 L 64.681641 28.214844 L 64.681641 8.0136719 C 64.681641 6.5470051 64.171731 5.2404167 63.150391 4.09375 C 62.521874 3.3470833 61.853566 2.8284896 61.146484 2.5351562 C 60.465591 2.2151562 59.653713 2.0546875 58.710938 2.0546875 L 47.59375 2.0546875 C 47.436621 2.0280208 47.175229 2.0136719 46.808594 2.0136719 z M 67.298828 2.0546875 L 67.298828 28.214844 L 88.667969 28.214844 L 88.667969 21.294922 L 75.626953 21.294922 L 75.626953 2.0546875 L 67.298828 2.0546875 z M 98.076172 2.0546875 C 96.79295 2.0546875 95.691978 2.2810416 94.775391 2.734375 C 93.858804 3.1877084 93.046925 3.9202604 92.339844 4.9335938 C 91.868456 5.6269271 91.542692 6.3614323 91.359375 7.1347656 C 91.176058 7.8814323 91.083984 8.6283333 91.083984 9.375 L 91.083984 20.814453 C 91.083984 22.04112 91.253303 23.201588 91.59375 24.294922 C 91.960385 25.388255 92.431672 26.188646 93.007812 26.695312 C 94.133905 27.708646 95.326951 28.214844 96.583984 28.214844 L 113.82812 28.214844 L 113.82812 21.294922 L 98.861328 21.294922 L 98.861328 8.9746094 L 113.82812 8.9746094 L 113.82812 2.0546875 L 98.076172 2.0546875 z M 116.44141 2.0546875 L 116.44141 28.214844 L 124.17969 28.214844 L 124.17969 17.894531 L 133.60742 17.894531 L 133.60742 28.214844 L 141.38477 28.214844 L 141.38477 20.054688 C 141.38477 18.908021 140.91348 17.788646 139.9707 16.695312 C 139.68263 16.375312 139.29054 16.041979 138.79297 15.695312 C 138.63584 15.588646 138.38732 15.440573 138.04688 15.253906 C 138.49207 14.98724 138.81979 14.78763 139.0293 14.654297 C 139.73638 14.174297 140.22054 13.748333 140.48242 13.375 C 140.98 12.628333 141.28001 11.867083 141.38477 11.09375 L 141.38477 7.0136719 C 141.38477 5.2803385 140.70554 3.9346094 139.34375 2.9746094 C 138.84617 2.6279427 138.37489 2.3872396 137.92969 2.2539062 C 137.48449 2.1205729 136.94688 2.0546875 136.31836 2.0546875 L 116.44141 2.0546875 z M 150.78516 2.0546875 C 149.50193 2.0546875 148.40096 2.2810416 147.48438 2.734375 C 146.56779 3.1877084 145.75591 3.9202604 145.04883 4.9335938 C 144.57744 5.6269271 144.24972 6.3614323 144.06641 7.1347656 C 143.88309 7.8814323 143.79297 8.6283333 143.79297 9.375 L 143.79297 20.814453 C 143.79297 22.04112 143.96229 23.201588 144.30273 24.294922 C 144.66937 25.388255 145.15353 26.201042 145.75586 26.734375 C 146.35819 27.241042 146.8958 27.613516 147.36719 27.853516 C 147.86476 28.093516 148.46675 28.214844 149.17383 28.214844 L 163.23633 28.214844 C 165.20044 28.214844 166.8242 27.402057 168.10742 25.775391 C 169.12876 24.575391 169.64062 23.242057 169.64062 21.775391 L 169.64062 8.7753906 C 169.64063 7.6553906 169.48223 6.7069271 169.16797 5.9335938 C 168.8799 5.1602604 168.35711 4.4277084 167.59766 3.734375 C 166.86439 3.014375 165.68617 2.5205729 164.0625 2.2539062 C 163.51255 2.1739062 162.75217 2.1080208 161.7832 2.0546875 L 150.78516 2.0546875 z M 172.25586 2.0546875 L 172.25586 28.214844 L 180.03516 28.214844 L 180.03516 11.333984 L 190.44531 28.214844 L 197.86914 28.214844 L 197.86914 2.0546875 L 190.44531 2.0546875 L 190.44531 15.054688 L 182.15625 2.0546875 L 172.25586 2.0546875 z M 124.17969 8.9746094 L 133.60742 8.9746094 L 133.60742 12.455078 L 124.17969 12.455078 L 124.17969 8.9746094 z M 151.57031 8.9746094 L 161.86133 8.9746094 L 161.86133 21.294922 L 151.57031 21.294922 L 151.57031 8.9746094 z M 48.300781 9.0546875 L 56.943359 9.0546875 L 56.943359 12.535156 L 48.300781 12.535156 L 48.300781 9.0546875 z "
       transform="translate(-7.629395e-6,1022.3622)"
       id="text4136" />
  </g>
</svg>
