<?xml version="1.0" encoding="UTF-8" standalone="no"?>
<!-- Created with Inkscape (http://www.inkscape.org/) -->

<svg
   xmlns:dc="http://purl.org/dc/elements/1.1/"
   xmlns:cc="http://creativecommons.org/ns#"
   xmlns:rdf="http://www.w3.org/1999/02/22-rdf-syntax-ns#"
   xmlns:svg="http://www.w3.org/2000/svg"
   xmlns="http://www.w3.org/2000/svg"
   xmlns:sodipodi="http://sodipodi.sourceforge.net/DTD/sodipodi-0.dtd"
   xmlns:inkscape="http://www.inkscape.org/namespaces/inkscape"
   width="750"
   height="750"
   viewBox="0 0 750.00001 750.00001"
   id="svg2"
   version="1.1"
   inkscape:version="0.91 r13725"
   sodipodi:docname="whiteBg_logoOnly.svg">
  <defs
     id="defs4">
    <inkscape:path-effect
       effect="spiro"
       id="path-effect4172"
       is_visible="true" />
    <inkscape:path-effect
       effect="spiro"
       id="path-effect4168"
       is_visible="true" />
    <inkscape:path-effect
       effect="spiro"
       id="path-effect4164"
       is_visible="true" />
    <inkscape:path-effect
       effect="spiro"
       id="path-effect4154"
       is_visible="true" />
    <inkscape:path-effect
       effect="spiro"
       id="path-effect4150"
       is_visible="true" />
  </defs>
  <sodipodi:namedview
     id="base"
     pagecolor="#ffffff"
     bordercolor="#666666"
     borderopacity="1.0"
     inkscape:pageopacity="0.0"
     inkscape:pageshadow="2"
     inkscape:zoom="0.49497475"
     inkscape:cx="326.79498"
     inkscape:cy="605.80334"
     inkscape:document-units="px"
     inkscape:current-layer="layer1"
     showgrid="false"
     units="px"
     showguides="false"
     inkscape:window-width="1920"
     inkscape:window-height="1017"
     inkscape:window-x="1912"
     inkscape:window-y="-8"
     inkscape:window-maximized="1" />
  <metadata
     id="metadata7">
    <rdf:RDF>
      <cc:Work
         rdf:about="">
        <dc:format>image/svg+xml</dc:format>
        <dc:type
           rdf:resource="http://purl.org/dc/dcmitype/StillImage" />
        <dc:title></dc:title>
      </cc:Work>
    </rdf:RDF>
  </metadata>
  <g
     inkscape:label="Layer 1"
     inkscape:groupmode="layer"
     id="layer1"
     transform="translate(0,-302.36216)">
    <path
       style="opacity:1;fill:#2a7fff;fill-opacity:1;stroke:none;stroke-width:10;stroke-linecap:butt;stroke-linejoin:miter;stroke-miterlimit:4;stroke-dasharray:none;stroke-dashoffset:0;stroke-opacity:1"
       d="m 405.67107,402.09159 c -155.05892,-1.2e-4 -280.75901,123.9712 -280.75878,276.89747 0.0353,104.79192 60.0498,200.58613 155.05906,247.50293 L 361.1281,753.42803 c -88.3388,-9.6091 -136.824,-45.49133 -136.91077,-131.21154 3.9e-4,-120.31905 85.46206,-217.85664 213.53386,-217.85636 0.91846,0.0381 1.83667,0.0812 2.75459,0.12954 -11.54987,-1.51145 -23.18394,-2.31235 -34.83471,-2.39808 z"
       id="path4138"
       inkscape:connector-curvature="0"
       sodipodi:nodetypes="cccccccc" />
    <path
       style="fill:#2a7fff;fill-rule:evenodd;stroke:none;stroke-width:1px;stroke-linecap:butt;stroke-linejoin:miter;stroke-opacity:1"
       d="m 298.25211,726.65026 c 11.4528,3.29567 23.03818,6.13059 34.71871,8.4956 11.49288,2.32701 23.07786,4.19909 34.71872,5.61039 l 80.43635,185.44194 c 28.22364,2.51875 57.14552,-3.37971 82.12873,-16.74972 24.98321,-13.37001 45.93478,-34.1618 59.49565,-59.04193 13.18118,-24.18353 19.34386,-52.14032 17.55207,-79.62443 -1.79179,-27.4841 -11.53209,-54.40413 -27.74158,-76.67157 -16.2095,-22.26744 -38.83429,-39.80825 -64.43821,-49.95841 -25.60392,-10.15015 -54.10184,-12.87591 -81.16561,-7.76328 32.52903,-1.85835 65.57754,12.84426 85.9775,38.24963 20.39997,25.40537 27.61802,60.84927 18.77816,92.20925 -6.94149,24.62539 -23.4499,46.41969 -45.27477,59.77145 l -79.1087,-186.50007 c -23.47266,1.35977 -46.54039,9.15726 -66.02407,22.31784 -22.86447,15.44419 -40.65715,38.27056 -50.05295,64.21331 z"
       id="path4148"
       inkscape:path-effect="#path-effect4150"
       inkscape:original-d="m 298.25211,726.65026 c 0,0 23.14581,6.1446 34.71871,8.4956 11.5729,2.351 34.71872,5.61039 34.71872,5.61039 l 80.43635,185.44194 c 0,0 121.13793,-50.03482 141.62438,-75.79165 20.48646,-25.75683 -155.79333,-214.01769 -155.79333,-214.01769 0,0 115.99381,99.36877 104.75566,130.45888 -11.42931,31.61897 -45.27477,59.77145 -45.27477,59.77145 -20.74148,-44.54316 -65.84198,-171.85592 -79.1087,-186.50007 0,0 -46.55768,8.37685 -66.02407,22.31784 -19.46639,13.941 -50.05295,64.21331 -50.05295,64.21331 z"
       inkscape:connector-curvature="0"
       sodipodi:nodetypes="csccscsccsc" />
    <ellipse
       style="opacity:0.6;fill:none;fill-opacity:1;stroke:#0066ff;stroke-width:20;stroke-linecap:butt;stroke-linejoin:miter;stroke-miterlimit:4;stroke-dasharray:none;stroke-dashoffset:0;stroke-opacity:1"
       id="path4150"
       cx="375.77673"
       cy="677.59558"
       rx="359.61429"
       ry="360.62445" />
    <ellipse
       style="opacity:0.6;fill:none;fill-opacity:1;stroke:#0066ff;stroke-width:5;stroke-linecap:butt;stroke-linejoin:miter;stroke-miterlimit:4;stroke-dasharray:none;stroke-dashoffset:0;stroke-opacity:1"
       id="path4150-8"
       cx="375.77673"
       cy="676.58545"
       rx="311.12695"
       ry="324.25897" />
  </g>
</svg>
