<svg xmlns="http://www.w3.org/2000/svg" viewBox="0 0 1440 320"><path fill="#0099ff" fill-opacity="1" d="M0,32L0,224L62.6,224L62.6,224L125.2,224L125.2,96L187.8,96L187.8,192L250.4,192L250.4,224L313,224L313,288L375.7,288L375.7,288L438.3,288L438.3,192L500.9,192L500.9,64L563.5,64L563.5,32L626.1,32L626.1,288L688.7,288L688.7,0L751.3,0L751.3,256L813.9,256L813.9,224L876.5,224L876.5,128L939.1,128L939.1,256L1001.7,256L1001.7,128L1064.3,128L1064.3,256L1127,256L1127,192L1189.6,192L1189.6,64L1252.2,64L1252.2,256L1314.8,256L1314.8,32L1377.4,32L1377.4,256L1440,256L1440,320L1377.4,320L1377.4,320L1314.8,320L1314.8,320L1252.2,320L1252.2,320L1189.6,320L1189.6,320L1127,320L1127,320L1064.3,320L1064.3,320L1001.7,320L1001.7,320L939.1,320L939.1,320L876.5,320L876.5,320L813.9,320L813.9,320L751.3,320L751.3,320L688.7,320L688.7,320L626.1,320L626.1,320L563.5,320L563.5,320L500.9,320L500.9,320L438.3,320L438.3,320L375.7,320L375.7,320L313,320L313,320L250.4,320L250.4,320L187.8,320L187.8,320L125.2,320L125.2,320L62.6,320L62.6,320L0,320L0,320Z"></path></svg>