<svg width="0" height="0" class="hidden">
  <symbol xmlns="http://www.w3.org/2000/svg" viewBox="0 0 120 120" id="so">
    <path d="M84.4 93.8V70.6h7.7v30.9H22.6V70.6h7.7v23.2z" fill="#bcbbbb"></path>
    <path d="M38.8 68.4l37.8 7.9 1.6-7.6-37.8-7.9-1.6 7.6zm5-18l35 16.3 3.2-7-35-16.4-3.2 7.1zm9.7-17.2l29.7 24.7 4.9-5.9-29.7-24.7-4.9 5.9zm19.2-18.3l-6.2 4.6 23 31 6.2-4.6-23-31zM38 86h38.6v-7.7H38V86z" fill="#f48023"></path>
  </symbol>
  <symbol xmlns="http://www.w3.org/2000/svg" viewBox="0 0 510 510" id="linkedin">
    <path d="M459 0H51C22.95 0 0 22.95 0 51v408c0 28.05 22.95 51 51 51h408c28.05 0 51-22.95 51-51V51c0-28.05-22.95-51-51-51zM153 433.5H76.5V204H153v229.5zm-38.25-272.85c-25.5 0-45.9-20.4-45.9-45.9s20.4-45.9 45.9-45.9 45.9 20.4 45.9 45.9-20.4 45.9-45.9 45.9zM433.5 433.5H357V298.35c0-20.399-17.85-38.25-38.25-38.25s-38.25 17.851-38.25 38.25V433.5H204V204h76.5v30.6c12.75-20.4 40.8-35.7 63.75-35.7 48.45 0 89.25 40.8 89.25 89.25V433.5z" fill="#757575"></path>
  </symbol>
  <symbol viewBox="0 0 512 512" xmlns="http://www.w3.org/2000/svg" id="gm">
    <path d="M257.1 507.9C119.2 507.9 7.9 395.4 8.5 255.5 9.1 116.9 120.9 4.8 259.6 6.2c136 1.3 247 112.8 245.9 253.1-1.1 137.8-111.6 248.2-248.4 248.6zm-.1-482C132.9 25.5 29.3 126.6 28.1 254.5c-1.3 130.3 102.8 232.4 226.4 233.7 125.9 1.3 230.7-100.6 231.3-229.2.7-129.6-101.5-233.1-228.8-233.1z" fill="#E65C4F"></path>
    <path d="M388.1 143c13.4-1.4 26 9.3 26.9 22.9.2 3.6 0 7.3 0 11-1.2 0-2.1.8-3.1 1.5-11 7.9-21.9 15.7-32.9 23.6-36.7 25.2-73.4 50.3-110 75.6-3.8 2.6-8.1 4.6-11.1 8.3-1.7.3-2.8-.8-4-1.7-29.6-20.6-59.3-41.3-88.9-61.9-10.1-7-20.1-14-31-21.5V293c0 25.3.1 50.6.2 75.9 0 .7-.1 1.4-.1 2.1-16.6 3.2-30.7-4.7-34.4-19.4-.5-2.1-.7-4.3-.7-6.4 0-58.7.1-117.5-.1-176.2-.1-14.9 13.2-28.1 27.1-26 .5.5.9 1 1.4 1.4 42.1 31.2 84.2 62.4 126.2 93.6 2.5 1.9 4 1.6 6.3-.1 26.2-19.4 52.5-38.7 78.7-58 16.5-12.2 33-24.6 49.5-36.9z" fill="#E65A4D"></path>
    <path d="M134.1 369c-.1-25.3-.1-50.6-.2-75.9v-92.2c10.8 7.5 20.9 14.5 31 21.5 29.6 20.6 59.3 41.3 88.9 61.9 1.2.8 2.3 1.9 4 1.7.2 2.2 2.2 2.8 3.7 3.8 34 23.6 68 47 101.9 70.8 4.3 3 9.3 5.2 12.6 9.6-1 1.3-2.4 1-3.7 1-78.8 0-157.6-.1-236.4-.1.7-1 1.4-1.9 2.1-2.9 2.2-.7 4.2-1.6 5-4 4.2-.6 6.7-3.6 9.3-6.5-3.6 1.5-7 3.1-9.5 6.3-2.2.7-4.2 1.6-5 4-1.2.2-2.4.6-3.7 1zm59.9-40h1c1.3-.7 2.9-1 3-3 .8 0 1.6-.2 2-1l1-1c.8 0 1.6-.2 2-1 .1-.2.3-.3.4-.5-.2.1-.3.3-.5.4-.8 0-1.6.2-2 1l-1 1c-.8 0-1.6.2-2 1-1.4 0-2.4.7-3 2-.3.4-.6.7-.9 1.1-.2.1-.4.2-.5.4.2-.1.4-.2.5-.4zm-6 4c.8 0 1.6-.2 2-1 .8-.1 1.6-.2 1.5-1.2 0-.1-.2-.3-.3-.3-1.1-.1-1.2.7-1.3 1.5-.8 0-1.5.1-1.9 1-.4.3-.7.6-1.1.9-.8 0-1.6.2-2 1l-1 1c-.8 0-1.6.2-2 1-1.4.1-2.4.7-3 2-.3.3-.6.7-1 1-.1.2-.3.3-.4.5.2-.1.3-.3.5-.4.8 0 1.6-.2 2-1 1.2-.1 1.9-.7 2-2 .8 0 1.6-.2 2-1l1-1c.8 0 1.6-.2 2-1 .4-.3.7-.6 1-1zm-16 11c-.8.1-1.6.2-1.5 1.3 0 .1.2.3.3.3 1 0 1.1-.8 1.2-1.6.9.1 1.6-.1 2.1-.9.8-.1 1.6-.2 1.5-1.3 0-.1-.2-.3-.3-.3-1.1-.1-1.2.7-1.3 1.5-.9 0-1.6.2-2 1zm-13.1 8.9c-1.4.1-2.4.8-3 2-.7.2-1.6.3-1.5 1.3 0 .1.2.3.3.3 1 .1 1.2-.7 1.4-1.5 1.4 0 2.8-.2 3-2 .8 0 1.5-.2 2-1 1.4-.1 2.4-.8 3-2 .7-.2 1.6-.2 1.5-1.3 0-.1-.2-.3-.3-.3-1.1-.1-1.2.7-1.3 1.5-1.4 0-2.8.1-3 2-.9.1-1.6.3-2.1 1zm9.8-5.7c-.1-.3-.1-.7-.3-.8-.2-.1-.6 0-.8.2-.3.4-.2.9.4.9.1.1.4-.1.7-.3z" fill="#E6E3D6"></path>
    <path d="M388.1 143c-16.5 12.3-33 24.6-49.6 36.9-26.2 19.4-52.5 38.6-78.7 58-2.4 1.8-3.8 2-6.3.1-42-31.3-84.1-62.4-126.2-93.6-.5-.4-.9-.9-1.4-1.4 54.6 0 109.2-.1 163.9-.1 32.7.1 65.5.1 98.3.1z" fill="#F6F4EC"></path>
    <path d="M376 370c-3.3-4.4-8.3-6.6-12.6-9.6-33.9-23.7-68-47.2-101.9-70.8-1.4-1-3.4-1.6-3.7-3.8 3-3.7 7.3-5.7 11.1-8.3 36.6-25.3 73.3-50.4 110-75.6 0 56.3 0 112.6.1 168.9-1-.1-2-.5-3-.8z" fill="#B6B5AC"></path>
    <path d="M379.1 371c0-56.3 0-112.6-.1-168.9 11-7.9 21.9-15.7 32.9-23.6.9-.7 1.8-1.5 3.1-1.5.1 18.5.2 36.9.2 55.4v108.3c0 2.5 0 5-.1 7.5-.6 12.4-6.6 19.4-18.6 21.7-5.8 1.1-11.6 1.8-17.4 1.1z" fill="#B13A30"></path>
    <path d="M138.1 368.1c-.7 1-1.4 1.9-2.1 2.9-.7 0-1.3 0-2 .1 0-.7.1-1.4.1-2.1 1.3-.4 2.5-.7 3.8-1.1l.2.2zm4.8-4.2c2.5-3.1 5.9-4.8 9.5-6.3-2.6 2.9-5.1 5.9-9.3 6.5l-.2-.2z" fill="#C1C0B6"></path>
    <path d="M143.1 364.1c-.9 2.4-2.9 3.3-5 4l-.2-.2c.8-2.4 2.9-3.3 5-4l.2.2z" fill="#C1C0B6"></path>
    <path d="M198 326c-.1 1.9-1.8 2.2-3 3v-1c.6-1.3 1.6-2 3-2z" fill="#C5C3B9"></path>
    <path d="M178.9 339c.6-1.3 1.6-2 3-2l.1.1c0 1.3-.7 1.9-2 2-.3-.1-.7-.1-1.1-.1z" fill="#C3C2B8"></path>
    <path d="M164.1 350.1c-.6 1.3-1.6 1.9-3 2l-.1-.1c.2-1.9 1.6-2 3-2l.1.1zm-8.2 4.8c.6-1.2 1.6-1.9 3-2l.1.2c-.2 1.9-1.5 2-3 2l-.1-.2zm18-12c.1-.8.3-1.6 1.3-1.5.1 0 .3.2.3.3 0 1.1-.8 1.1-1.5 1.3l-.1-.1zm-1.9 1.2c-.1.8-.2 1.6-1.3 1.5-.1 0-.3-.2-.3-.3 0-1.2.8-1.2 1.6-1.2 0-.1 0 0 0 0zm-3.3 3.1c-.2.1-.5.4-.7.4-.5-.1-.7-.5-.4-.9.1-.2.6-.3.8-.2.1.1.2.4.3.7zm-4.8 2.7c.1-.8.3-1.5 1.3-1.5.1 0 .3.2.3.3.1 1.1-.8 1.1-1.5 1.3l-.1-.1z" fill="#C1C0B6"></path>
    <path d="M156.1 355.1c-.2.8-.3 1.5-1.4 1.5-.1 0-.3-.2-.3-.3-.1-1.1.8-1.1 1.5-1.3 0-.1.2.1.2.1z" fill="#C1C0B6"></path>
    <path d="M190 332c.1-.8.2-1.6 1.3-1.5.1 0 .3.2.3.3 0 1.1-.8 1.1-1.6 1.2z" fill="#C3C2B8"></path>
    <path d="M201 324c.4-.8 1.2-1 2-1-.4.8-1.1 1-2 1zm-1 1c-.4.8-1.2 1-2 1l-.1-.1c.5-.7 1.2-.9 2.1-.9z" fill="#C5C3B9"></path>
    <path d="M185 335c.4-.8 1.2-1 2-1l.1.1c-.5.7-1.2.9-2.1.9 0 .1 0 0 0 0zm-3 2c.4-.8 1.2-1 2-1l.1.1c-.5.8-1.2.9-2.1.9z" fill="#C3C2B8"></path>
    <path d="M178.9 339h1.1c-.5.8-1.2 1-2 1l-.1-.1c.4-.3.7-.6 1-.9zm-4.9 4c-.4.8-1.2 1-2 1l-.1-.1c.4-.8 1.2-1 2-1l.1.1zm-15.1 9.9c.4-.8 1.2-1 2-1l.1.1c-.4.8-1.2 1-2 1l-.1-.1z" fill="#C1C0B6"></path>
    <path d="M190 332c-.4.8-1.1 1-2 1 .4-.9 1.1-1 2-1z" fill="#C3C2B8"></path>
    <path d="M203 323c.2-.1.3-.3.5-.4-.2.1-.3.3-.5.4zm-2 1l-1 1-.1-.1c.4-.3.7-.6 1.1-.9z" fill="#C5C3B9"></path>
    <path d="M195 328v1c-.3 0-.6.1-1 0 .3-.4.6-.7 1-1zm-1 1c-.2.1-.3.3-.5.4.2-.1.3-.3.5-.4zm-10 7l1-1 .1.1c-.4.3-.7.6-1.1.9z" fill="#C3C2B8"></path>
    <path d="M178 340c-.2.1-.3.3-.5.4.2-.1.3-.3.5-.4z" fill="#C1C0B6"></path>
    <path d="M188 333l-1 1-.1-.1c.4-.3.7-.6 1.1-.9z" fill="#C3C2B8"></path>
  </symbol>
  <symbol viewBox="0 0 512 512" xmlns="http://www.w3.org/2000/svg" id="fb">
    <path d="M257.1 507.9C119.1 507.9 8 395.4 8.5 255.4 9.1 117.1 120.7 4.8 259.7 6.2c136.2 1.4 247 113.2 245.8 253.1-1.1 137.6-111.5 248.2-248.4 248.6zm.4-482C133 25.3 29.3 126.6 28.1 254.5c-1.3 130.2 102.7 232.4 226.5 233.7 125.8 1.3 230.7-100.6 231.3-229.2.6-129.4-101.6-233.1-228.4-233.1z" fill="#4A64A4"></path>
    <path d="M206.9 345c0-27.5-.1-55 .1-82.5 0-4.8-1.4-5.8-5.9-5.7-9.8.3-19.7 0-29.5.1-2.8 0-3.8-.7-3.8-3.6.1-17.3.1-34.7 0-52 0-3.1 1-4.1 4-4 10.2.1 20.3-.1 30.5.1 3.5.1 4.6-1 4.6-4.5-.2-15.3-.1-30.7-.1-46 .1-36.5 22.3-57.8 55.3-64 17.9-3.4 35.9-2 53.8-2.3 9.2-.1 18.3.1 27.5-.1 3.8-.1 4.3 1.5 4.3 4.7-.1 17.5-.1 35 0 52.5 0 3.5-1 4.6-4.5 4.5-12.3-.2-24.7-.1-37-.1-12.6 0-19.3 6.9-19.3 19.5 0 10.3.1 20.7-.1 31-.1 3.5 1 4.6 4.5 4.5 17-.2 34 0 51-.2 4 0 5.1 1 4.8 5.1-1.5 17.1-3.6 34.1-6.2 51.1-.5 3-1.6 3.8-4.5 3.7-14.8-.1-29.7.1-44.5-.2-4.2-.1-5.2 1.2-5.1 5.3.1 55.2 0 110.3.2 165.5 0 4.2-.8 5.7-5.4 5.6-23.2-.3-46.3-.2-69.5 0-4.1 0-5.3-1-5.3-5.2.2-27.5.1-55.1.1-82.8z" fill="#4962A3"></path>
  </symbol>
  <symbol fill="#fff" viewBox="0 0 24 24" xmlns="http://www.w3.org/2000/svg" id="action">
    <path d="M0 0h24v24H0z" fill="none"></path>
    <path d="M18 16.08c-.76 0-1.44.3-1.96.77L8.91 12.7c.05-.23.09-.46.09-.7s-.04-.47-.09-.7l7.05-4.11c.54.5 1.25.81 2.04.81 1.66 0 3-1.34 3-3s-1.34-3-3-3-3 1.34-3 3c0 .24.04.47.09.7L8.04 9.81C7.5 9.31 6.79 9 6 9c-1.66 0-3 1.34-3 3s1.34 3 3 3c.79 0 1.5-.31 2.04-.81l7.12 4.16c-.05.21-.08.43-.08.65 0 1.61 1.31 2.92 2.92 2.92 1.61 0 2.92-1.31 2.92-2.92s-1.31-2.92-2.92-2.92z"></path>
  </symbol>
</svg>
