<?xml version="1.0" encoding="UTF-8" standalone="no"?>
<!-- Created with Inkscape (http://www.inkscape.org/) -->

<svg
   xmlns:dc="http://purl.org/dc/elements/1.1/"
   xmlns:cc="http://creativecommons.org/ns#"
   xmlns:rdf="http://www.w3.org/1999/02/22-rdf-syntax-ns#"
   xmlns:svg="http://www.w3.org/2000/svg"
   xmlns="http://www.w3.org/2000/svg"
   xmlns:sodipodi="http://sodipodi.sourceforge.net/DTD/sodipodi-0.dtd"
   xmlns:inkscape="http://www.inkscape.org/namespaces/inkscape"
   width="290"
   height="200"
   viewBox="0 0 290 200"
   id="svg2"
   version="1.1"
   inkscape:version="0.91 r13725"
   sodipodi:docname="fishes.svg">
  <defs
     id="defs4" />
  <sodipodi:namedview
     id="base"
     pagecolor="#ffffff"
     bordercolor="#666666"
     borderopacity="1.0"
     inkscape:pageopacity="0.0"
     inkscape:pageshadow="2"
     inkscape:zoom="1.4"
     inkscape:cx="290.67623"
     inkscape:cy="110.30255"
     inkscape:document-units="px"
     inkscape:current-layer="layer1"
     showgrid="false"
     units="px"
     inkscape:window-width="1366"
     inkscape:window-height="706"
     inkscape:window-x="-8"
     inkscape:window-y="-8"
     inkscape:window-maximized="1" />
  <metadata
     id="metadata7">
    <rdf:RDF>
      <cc:Work
         rdf:about="">
        <dc:format>image/svg+xml</dc:format>
        <dc:type
           rdf:resource="http://purl.org/dc/dcmitype/StillImage" />
        <dc:title></dc:title>
      </cc:Work>
    </rdf:RDF>
  </metadata>
  <g
     inkscape:label="Layer 1"
     inkscape:groupmode="layer"
     id="layer1"
     transform="translate(0,-852.36216)">
    <path
       style="fill:#333333;fill-opacity:1;fill-rule:evenodd;stroke:none;stroke-width:1px;stroke-linecap:butt;stroke-linejoin:miter;stroke-opacity:1"
       d="m 83.621316,922.36216 c -3.372941,0.20901 -11.136989,4.19057 -12.420389,7.14286 -7.763942,17.8599 16.696444,2.9389 19.251603,0 2.11613,-2.43394 6.754236,0.71428 7.452234,0.71428 1.839128,0 -4.833422,-1.83109 -6.889473,-6.39384 -2.347068,-5.20856 0.264423,-13.3001 -1.8048,-12.89188 0,0 -1.22415,10.42447 -5.589175,11.42858 z"
       id="path4566"
       inkscape:connector-curvature="0"
       sodipodi:nodetypes="csssssc" />
    <path
       style="fill:#333333;fill-opacity:1;fill-rule:evenodd;stroke:none;stroke-width:1px;stroke-linecap:butt;stroke-linejoin:miter;stroke-opacity:1"
       d="m 203.18936,965.91069 c -3.8795,0.20901 -12.80957,4.19057 -14.28571,7.14286 -8.92995,17.8599 19.20396,2.9389 22.14285,0 2.43394,-2.43394 7.76861,0.71428 8.57143,0.71428 2.11534,0 -5.55931,-1.83109 -7.92415,-6.39384 -2.69955,-5.20856 0.30414,-13.3001 -2.07585,-12.89188 0,0 -1.40799,10.42447 -6.42857,11.42858 z"
       id="path4566-4"
       inkscape:connector-curvature="0"
       sodipodi:nodetypes="csssssc" />
    <path
       style="fill:#333333;fill-opacity:1;fill-rule:evenodd;stroke:none;stroke-width:1px;stroke-linecap:butt;stroke-linejoin:miter;stroke-opacity:1"
       d="m 173.70448,930.1964 c -2.2754,0.20901 -7.51306,4.19057 -8.37886,7.14286 -5.23759,17.8599 11.26351,2.9389 12.98723,0 1.42755,-2.43394 4.55644,0.71428 5.02731,0.71428 1.24068,0 -3.26065,-1.83109 -4.64767,-6.39384 -1.58334,-5.20856 0.17838,-13.3001 -1.21753,-12.89188 0,0 -0.82582,10.42447 -3.77048,11.42858 z"
       id="path4566-7"
       inkscape:connector-curvature="0"
       sodipodi:nodetypes="csssssc" />
    <path
       style="fill:#333333;fill-opacity:1;fill-rule:evenodd;stroke:none;stroke-width:1px;stroke-linecap:butt;stroke-linejoin:miter;stroke-opacity:1"
       d="m 150.33221,956.62498 c -3.87949,0.20901 -12.80957,4.19057 -14.28571,7.14286 -8.92995,17.8599 19.20396,2.9389 22.14286,0 2.43393,-2.43394 7.7686,0.71428 8.57143,0.71428 2.11533,0 -5.55932,-1.83109 -7.92416,-6.39384 -2.69955,-5.20856 0.30414,-13.3001 -2.07584,-12.89188 0,0 -1.408,10.42447 -6.42858,11.42858 z"
       id="path4566-6"
       inkscape:connector-curvature="0"
       sodipodi:nodetypes="csssssc" />
    <path
       style="fill:#333333;fill-opacity:1;fill-rule:evenodd;stroke:none;stroke-width:1px;stroke-linecap:butt;stroke-linejoin:miter;stroke-opacity:1"
       d="m 125.432,924.63649 c -2.86639,0.15965 -9.46441,3.20083 -10.55507,5.45583 -6.59794,13.64166 14.18893,2.24478 16.36035,0 1.79833,-1.85908 5.73987,0.54558 6.33304,0.54558 1.56293,0 -4.10753,-1.39862 -5.85479,-4.88371 -1.99458,-3.97838 0.22471,-10.15882 -1.53375,-9.84702 0,0 -1.04031,7.96237 -4.74978,8.72932 z"
       id="path4566-9"
       inkscape:connector-curvature="0"
       sodipodi:nodetypes="csssssc" />
    <path
       style="fill:#333333;fill-opacity:1;fill-rule:evenodd;stroke:none;stroke-width:1px;stroke-linecap:butt;stroke-linejoin:miter;stroke-opacity:1"
       d="m 126.0465,945.19641 c -3.87949,0.20901 -12.80957,4.19057 -14.28571,7.14286 -8.92995,17.8599 19.20396,2.9389 22.14286,0 2.43393,-2.43394 7.7686,0.71428 8.57143,0.71428 2.11533,0 -5.55932,-1.83109 -7.92416,-6.39384 -2.69955,-5.20856 0.30414,-13.3001 -2.07584,-12.89188 0,0 -1.408,10.42447 -6.42858,11.42858 z"
       id="path4566-8"
       inkscape:connector-curvature="0"
       sodipodi:nodetypes="csssssc" />
    <path
       style="fill:#333333;fill-opacity:1;fill-rule:evenodd;stroke:none;stroke-width:1px;stroke-linecap:butt;stroke-linejoin:miter;stroke-opacity:1"
       d="m 93.189358,940.23711 c -3.8795,0.17061 -12.80957,3.42076 -14.28571,5.83072 -8.92995,14.57905 19.20395,2.39903 22.142852,0 2.43394,-1.98683 7.76861,0.58307 8.57143,0.58307 2.11533,0 -5.55932,-1.49472 -7.92415,-5.2193 -2.699562,-4.25175 0.30414,-10.85688 -2.075852,-10.52365 0,0 -1.40799,8.5095 -6.42857,9.32916 z"
       id="path4566-47"
       inkscape:connector-curvature="0"
       sodipodi:nodetypes="csssssc" />
    <path
       style="fill:#333333;fill-opacity:1;fill-rule:evenodd;stroke:none;stroke-width:1px;stroke-linecap:butt;stroke-linejoin:miter;stroke-opacity:1"
       d="m 109.61793,969.48212 c -3.8795,0.20901 -12.80957,4.19057 -14.285714,7.14286 -8.92995,17.8599 19.203954,2.9389 22.142854,0 2.43394,-2.43394 7.7686,0.71428 8.57143,0.71428 2.11533,0 -5.55932,-1.83109 -7.92415,-6.39384 -2.69956,-5.20856 0.30413,-13.3001 -2.07585,-12.89188 0,0 -1.40799,10.42447 -6.42857,11.42858 z"
       id="path4566-46"
       inkscape:connector-curvature="0"
       sodipodi:nodetypes="csssssc" />
    <path
       style="fill:#333333;fill-opacity:1;fill-rule:evenodd;stroke:none;stroke-width:1px;stroke-linecap:butt;stroke-linejoin:miter;stroke-opacity:1"
       d="m 193.18936,946.62498 c -3.8795,0.20901 -12.80957,4.19057 -14.28571,7.14286 -8.92995,17.8599 19.20395,2.9389 22.14285,0 2.43394,-2.43394 7.76861,0.71428 8.57143,0.71428 2.11533,0 -5.55932,-1.83109 -7.92415,-6.39384 -2.69956,-5.20856 0.30414,-13.3001 -2.07585,-12.89188 0,0 -1.40799,10.42447 -6.42857,11.42858 z"
       id="path4566-63"
       inkscape:connector-curvature="0"
       sodipodi:nodetypes="csssssc" />
    <path
       style="fill:#333333;fill-opacity:1;fill-rule:evenodd;stroke:none;stroke-width:1px;stroke-linecap:butt;stroke-linejoin:miter;stroke-opacity:1"
       d="m 159.33562,981.96599 c -3.11967,0.1761 -10.3007,3.53074 -11.48773,6.01817 -7.18093,15.04784 15.44269,2.47615 17.80597,0 1.95724,-2.0507 6.24706,0.60181 6.89264,0.60181 1.70103,0 -4.47047,-1.54277 -6.37213,-5.38709 -2.17083,-4.38844 0.24457,-11.20591 -1.66928,-10.86197 0,0 -1.13222,8.78307 -5.16947,9.62908 z"
       id="path4566-3"
       inkscape:connector-curvature="0"
       sodipodi:nodetypes="csssssc" />
    <path
       style="fill:#333333;fill-opacity:1;fill-rule:evenodd;stroke:none;stroke-width:1px;stroke-linecap:butt;stroke-linejoin:miter;stroke-opacity:1"
       d="m 165.76419,892.93987 c -3.11966,0.21998 -10.3007,4.41052 -11.48773,7.51776 -7.18093,18.79729 15.44269,3.09315 17.80598,0 1.95723,-2.56169 6.24705,0.75177 6.89264,0.75177 1.70103,0 -4.47047,-1.9272 -6.37214,-6.72942 -2.17082,-5.48194 0.24457,-13.99817 -1.66928,-13.56852 0,0 -1.13222,10.9716 -5.16947,12.02841 z"
       id="path4566-0"
       inkscape:connector-curvature="0"
       sodipodi:nodetypes="csssssc" />
    <path
       style="fill:#333333;fill-opacity:1;fill-rule:evenodd;stroke:none;stroke-width:1px;stroke-linecap:butt;stroke-linejoin:miter;stroke-opacity:1"
       d="m 112.658,888.19947 c -2.02213,0.26386 -6.67678,5.2903 -7.44619,9.01735 -4.65459,22.54683 10.00974,3.71015 11.54159,0 1.26865,-3.07268 4.04926,0.90172 4.46772,0.90172 1.10258,0 -2.89771,-2.31161 -4.13034,-8.07176 -1.4071,-6.57542 0.15853,-16.79041 -1.082,-16.27506 0,0 -0.73389,13.16014 -3.35078,14.42775 z"
       id="path4566-67"
       inkscape:connector-curvature="0"
       sodipodi:nodetypes="csssssc" />
    <path
       style="fill:#333333;fill-opacity:1;fill-rule:evenodd;stroke:none;stroke-width:1px;stroke-linecap:butt;stroke-linejoin:miter;stroke-opacity:1"
       d="m 102.65799,903.34541 c -2.02212,0.31871 -6.676779,6.39001 -7.446194,10.89183 -4.654593,27.23375 10.009754,4.48139 11.541604,0 1.26865,-3.71141 4.04926,1.08917 4.46771,1.08917 1.10258,0 -2.8977,-2.79215 -4.13033,-9.74968 -1.4071,-7.9423 0.15852,-20.28072 -1.082,-19.65825 0,0 -0.7339,15.89581 -3.35079,17.42693 z"
       id="path4566-675"
       inkscape:connector-curvature="0"
       sodipodi:nodetypes="csssssc" />
    <path
       style="fill:#333333;fill-opacity:1;fill-rule:evenodd;stroke:none;stroke-width:1px;stroke-linecap:butt;stroke-linejoin:miter;stroke-opacity:1"
       d="m 156.12133,917.22559 c -3.11966,0.21998 -10.3007,4.41052 -11.48773,7.51776 -7.18093,18.79729 15.44269,3.09315 17.80598,0 1.95723,-2.56169 6.24705,0.75177 6.89264,0.75177 1.70103,0 -4.47047,-1.9272 -6.37214,-6.72942 -2.17082,-5.48194 0.24457,-13.99817 -1.66928,-13.56852 0,0 -1.13222,10.9716 -5.16947,12.02841 z"
       id="path4566-0-0"
       inkscape:connector-curvature="0"
       sodipodi:nodetypes="csssssc" />
    <path
       style="fill:#333333;fill-opacity:1;fill-rule:evenodd;stroke:none;stroke-width:1px;stroke-linecap:butt;stroke-linejoin:miter;stroke-opacity:1"
       d="m 158.74606,938.61345 c -1.85327,0.25838 -6.11925,5.18033 -6.82442,8.8299 -4.26591,22.07814 9.17391,3.63302 10.57785,0 1.16271,-3.0088 3.71113,0.88298 4.09465,0.88298 1.01051,0 -2.65574,-2.26357 -3.78544,-7.90396 -1.2896,-6.43875 0.14529,-16.44139 -0.99166,-15.93675 0,0 -0.67261,12.88657 -3.07098,14.12783 z"
       id="path4566-0-0-6"
       inkscape:connector-curvature="0"
       sodipodi:nodetypes="csssssc" />
    <path
       style="fill:#333333;fill-opacity:1;fill-rule:evenodd;stroke:none;stroke-width:1px;stroke-linecap:butt;stroke-linejoin:miter;stroke-opacity:1"
       d="m 128.97848,981.59271 c -3.11966,0.14319 -10.3007,2.87091 -11.48773,4.89348 -7.18094,12.23558 15.44269,2.0134 17.80598,0 1.95723,-1.66746 6.24705,0.48935 6.89264,0.48935 1.70103,0 -4.47047,-1.25446 -6.37214,-4.38034 -2.17082,-3.56832 0.24457,-9.11173 -1.66928,-8.83206 0,0 -1.13222,7.14167 -5.16947,7.82957 z"
       id="path4566-0-0-9"
       inkscape:connector-curvature="0"
       sodipodi:nodetypes="csssssc" />
    <path
       style="fill:#333333;fill-opacity:1;fill-rule:evenodd;stroke:none;stroke-width:1px;stroke-linecap:butt;stroke-linejoin:miter;stroke-opacity:1"
       d="m 170.87228,966.5113 c -2.02212,0.21998 -6.67678,4.41052 -7.44619,7.51776 -4.65459,18.79729 10.00974,3.09315 11.54159,0 1.26865,-2.56169 4.04926,0.75177 4.46772,0.75177 1.10258,0 -2.8977,-1.9272 -4.13034,-6.72942 -1.40709,-5.48194 0.15853,-13.99817 -1.082,-13.56852 0,0 -0.73389,10.9716 -3.35078,12.02841 z"
       id="path4566-0-0-93"
       inkscape:connector-curvature="0"
       sodipodi:nodetypes="csssssc" />
    <path
       style="fill:#333333;fill-opacity:1;fill-rule:evenodd;stroke:none;stroke-width:1px;stroke-linecap:butt;stroke-linejoin:miter;stroke-opacity:1"
       d="m 89.111505,967.22558 c -1.768844,0.21998 -5.840485,4.41052 -6.51353,7.51776 -4.071579,18.7973 8.755988,3.0932 10.095971,0 1.109747,-2.56169 3.54207,0.7518 3.908119,0.7518 0.964482,0 -2.534752,-1.9272 -3.612996,-6.72945 -1.230853,-5.48194 0.138671,-13.99817 -0.94648,-13.56852 0,0 -0.641968,10.9716 -2.931084,12.02841 z"
       id="path4566-0-0-5"
       inkscape:connector-curvature="0"
       sodipodi:nodetypes="csssssc" />
    <path
       style="fill:#333333;fill-opacity:1;fill-rule:evenodd;stroke:none;stroke-width:1px;stroke-linecap:butt;stroke-linejoin:miter;stroke-opacity:1"
       d="m 72.549902,899.36844 c -3.11966,0.21998 -12.443557,-3.44662 -13.630587,-0.33938 -7.18093,18.79729 17.585547,10.95029 19.948837,7.85714 1.95723,-2.56169 6.24705,0.75177 6.89264,0.75177 1.70103,0 -4.47047,-1.9272 -6.37214,-6.72942 -2.17082,-5.48194 0.24457,-13.99817 -1.66928,-13.56852 0,0 -1.13222,10.9716 -5.16947,12.02841 z"
       id="path4566-0-0-62"
       inkscape:connector-curvature="0"
       sodipodi:nodetypes="csssssc" />
    <path
       style="fill:#333333;fill-opacity:1;fill-rule:evenodd;stroke:none;stroke-width:1px;stroke-linecap:butt;stroke-linejoin:miter;stroke-opacity:1"
       d="m 133.90365,897.33926 c -3.8795,0.20901 -12.80957,4.19057 -14.28571,7.14286 -8.92996,17.8599 19.20395,2.9389 22.14285,0 2.43394,-2.43394 7.76861,0.71428 8.57143,0.71428 2.11533,0 -5.55932,-1.83109 -7.92415,-6.39384 -2.69956,-5.20856 0.30414,-13.3001 -2.07585,-12.89188 0,0 -1.40799,10.42447 -6.42857,11.42858 z"
       id="path4566-63-9"
       inkscape:connector-curvature="0"
       sodipodi:nodetypes="csssssc" />
    <path
       style="fill:#333333;fill-opacity:1;fill-rule:evenodd;stroke:none;stroke-width:1px;stroke-linecap:butt;stroke-linejoin:miter;stroke-opacity:1"
       d="m 187.90706,985.76475 c -3.11967,0.15416 -10.3007,3.09085 -11.48773,5.26837 -7.18093,13.17298 15.44268,2.16766 17.80597,0 1.95723,-1.7952 6.24706,0.52684 6.89264,0.52684 1.70102,0 -4.47048,-1.35056 -6.37213,-4.71592 -2.17083,-3.84169 0.24457,-9.80979 -1.66928,-9.50869 0,0 -1.13222,7.6888 -5.16947,8.4294 z"
       id="path4566-63-7"
       inkscape:connector-curvature="0"
       sodipodi:nodetypes="csssssc" />
    <path
       style="fill:#333333;fill-opacity:1;fill-rule:evenodd;stroke:none;stroke-width:1px;stroke-linecap:butt;stroke-linejoin:miter;stroke-opacity:1"
       d="m 189.80086,910.19641 c -2.02213,0.20901 -6.67678,4.19057 -7.44619,7.14286 -4.65459,17.85989 10.00974,2.9389 11.54159,0 1.26865,-2.43394 4.04925,0.71428 4.46771,0.71428 1.10258,0 -2.8977,-1.83109 -4.13033,-6.39384 -1.4071,-5.20856 0.15853,-13.3001 -1.082,-12.89188 0,0 -0.73389,10.42447 -3.35078,11.42858 z"
       id="path4566-63-0"
       inkscape:connector-curvature="0"
       sodipodi:nodetypes="csssssc" />
    <path
       style="fill:#333333;fill-opacity:1;fill-rule:evenodd;stroke:none;stroke-width:1px;stroke-linecap:butt;stroke-linejoin:miter;stroke-opacity:1"
       d="m 140.98037,931.62497 c -0.92458,0.20901 -3.05284,4.19057 -3.40465,7.14286 -2.12823,17.8599 4.5768,2.9389 5.27721,0 0.58007,-2.43394 1.85146,0.71428 2.04279,0.71428 0.50414,0 -1.32493,-1.83109 -1.88853,-6.39384 -0.64337,-5.20856 0.0725,-13.3001 -0.49472,-12.89188 0,0 -0.33556,10.42447 -1.5321,11.42858 z"
       id="path4566-63-8"
       inkscape:connector-curvature="0"
       sodipodi:nodetypes="csssssc" />
    <path
       style="fill:#333333;fill-opacity:1;fill-rule:evenodd;stroke:none;stroke-width:1px;stroke-linecap:butt;stroke-linejoin:miter;stroke-opacity:1"
       d="m 100.33221,1000.1964 c -3.879496,0.209 -12.809566,4.1906 -14.285706,7.1429 -8.92995,17.8599 19.203946,2.9389 22.142846,0 2.43394,-2.4339 7.76861,0.7143 8.57143,0.7143 2.11534,0 -5.55932,-1.8311 -7.92415,-6.3939 -2.69956,-5.20853 0.30414,-13.30009 -2.07585,-12.89187 0,0 -1.40799,10.42444 -6.42857,11.42857 z"
       id="path4566-63-5"
       inkscape:connector-curvature="0"
       sodipodi:nodetypes="csssssc" />
    <path
       style="fill:#333333;fill-opacity:1;fill-rule:evenodd;stroke:none;stroke-width:1px;stroke-linecap:butt;stroke-linejoin:miter;stroke-opacity:1"
       d="m 140.79745,1002.3393 c -2.78196,0.209 -9.18564,4.1905 -10.24417,7.1428 -6.4036,17.8599 13.77101,2.9389 15.87847,0 1.74536,-2.4339 5.57081,0.7143 6.14651,0.7143 1.51688,0 -3.98655,-1.8311 -5.68235,-6.3938 -1.93584,-5.20863 0.21809,-13.3001 -1.48858,-12.8919 0,0 -1.00966,10.4245 -4.60988,11.4286 z"
       id="path4566-63-79"
       inkscape:connector-curvature="0"
       sodipodi:nodetypes="csssssc" />
    <path
       style="fill:#333333;fill-opacity:1;fill-rule:evenodd;stroke:none;stroke-width:1px;stroke-linecap:butt;stroke-linejoin:miter;stroke-opacity:1"
       d="m 66.140072,959.05291 c -3.055508,-2.3996 -12.395732,-5.29075 -15.451684,-4.04326 -18.486987,7.54661 12.505973,14.86706 16.653207,14.59371 3.434633,-0.22635 5.371846,5.65728 5.975632,6.1864 1.590898,1.39415 -2.974232,-5.04113 -1.745564,-10.03131 1.402485,-5.69641 8.994417,-9.80226 6.935427,-11.06383 0,0 -7.929364,6.91205 -12.367018,4.35829 z"
       id="path4566-63-52"
       inkscape:connector-curvature="0"
       sodipodi:nodetypes="csssssc" />
    <path
       style="fill:#333333;fill-opacity:1;fill-rule:evenodd;stroke:none;stroke-width:1px;stroke-linecap:butt;stroke-linejoin:miter;stroke-opacity:1"
       d="m 181.41889,1010.1804 c -3.87569,-0.2707 -13.22841,2.5798 -15.05717,5.3276 -11.06317,16.6231 18.69529,5.2835 21.97401,2.7292 2.71537,-2.1153 7.62134,1.6664 8.41804,1.7654 2.0992,0.2607 -5.29125,-2.5024 -7.07566,-7.3219 -2.03701,-5.5015 1.94111,-13.16123 -0.47106,-13.04933 0,0 -2.6821,10.17133 -7.78816,10.54903 z"
       id="path4566-63-3"
       inkscape:connector-curvature="0"
       sodipodi:nodetypes="csssssc"
       inkscape:transform-center-x="-64.088772"
       inkscape:transform-center-y="-20.353814" />
    <path
       style="fill:#333333;fill-opacity:1;fill-rule:evenodd;stroke:none;stroke-width:1px;stroke-linecap:butt;stroke-linejoin:miter;stroke-opacity:1"
       d="m 218.68786,984.67721 c -2.44426,0.1212 -8.07059,2.431 -9.00063,4.1437 -5.62626,10.36076 12.09933,1.7049 13.95097,0 1.53349,-1.4121 4.89457,0.4143 5.40038,0.4143 1.33275,0 -3.50262,-1.0622 -4.99256,-3.7091 -1.70085,-3.0216 0.19162,-7.71567 -1.30788,-7.47877 0,0 -0.8871,6.04737 -4.05028,6.62987 z"
       id="path4566-63-57"
       inkscape:connector-curvature="0"
       sodipodi:nodetypes="csssssc" />
    <path
       style="fill:#333333;fill-opacity:1;fill-rule:evenodd;stroke:none;stroke-width:1px;stroke-linecap:butt;stroke-linejoin:miter;stroke-opacity:1"
       d="m 201.18785,994.67719 c -2.44426,0.1212 -8.07059,2.43098 -9.00063,4.14368 -5.62626,10.36083 12.09933,1.70493 13.95097,0 1.53349,-1.4121 4.89457,0.4143 5.40038,0.4143 1.33275,0 -3.50262,-1.0622 -4.99256,-3.70908 -1.70085,-3.0216 0.19162,-7.71567 -1.30788,-7.47877 0,0 -0.8871,6.04737 -4.05028,6.62987 z"
       id="path4566-63-57-8"
       inkscape:connector-curvature="0"
       sodipodi:nodetypes="csssssc" />
    <path
       style="fill:#333333;fill-opacity:1;fill-rule:evenodd;stroke:none;stroke-width:1px;stroke-linecap:butt;stroke-linejoin:miter;stroke-opacity:1"
       d="m 207.61643,1003.963 c -2.44426,0.1212 -8.07059,2.431 -9.00063,4.1437 -5.62626,10.3607 12.09933,1.7049 13.95097,0 1.53349,-1.4121 4.89457,0.4143 5.40038,0.4143 1.33275,0 -3.50262,-1.0622 -4.99256,-3.7091 -1.70085,-3.0216 0.19162,-7.71573 -1.30788,-7.47883 0,0 -0.8871,6.04743 -4.05028,6.62993 z"
       id="path4566-63-57-2"
       inkscape:connector-curvature="0"
       sodipodi:nodetypes="csssssc" />
    <path
       style="fill:#333333;fill-opacity:1;fill-rule:evenodd;stroke:none;stroke-width:1px;stroke-linecap:butt;stroke-linejoin:miter;stroke-opacity:1"
       d="m 221.30426,995.39143 c -1.26229,0.1212 -4.1679,2.43104 -4.6482,4.14374 -2.90557,10.36083 6.24846,1.70493 7.2047,0 0.79195,-1.4121 2.52771,0.4143 2.78893,0.4143 0.68827,0 -1.80886,-1.0622 -2.57832,-3.70914 -0.87837,-3.0216 0.099,-7.71562 -0.67542,-7.4787 0,0 -0.45813,6.0473 -2.09169,6.6298 z"
       id="path4566-63-57-5"
       inkscape:connector-curvature="0"
       sodipodi:nodetypes="csssssc" />
    <path
       style="fill:#333333;fill-opacity:1;fill-rule:evenodd;stroke:none;stroke-width:1px;stroke-linecap:butt;stroke-linejoin:miter;stroke-opacity:1"
       d="m 236.32089,1002.5344 c -1.09344,0.1212 -3.61038,2.431 -4.02643,4.1437 -2.51691,10.3607 5.41263,1.7049 6.24096,0 0.68601,-1.4121 2.18958,0.4143 2.41586,0.4143 0.5962,0 -1.5669,-1.0622 -2.23342,-3.7091 -0.76088,-3.0216 0.0857,-7.71573 -0.58508,-7.47883 0,0 -0.39685,6.04743 -1.81189,6.62993 z"
       id="path4566-63-57-82"
       inkscape:connector-curvature="0"
       sodipodi:nodetypes="csssssc" />
    <path
       style="fill:#333333;fill-opacity:1;fill-rule:evenodd;stroke:none;stroke-width:1px;stroke-linecap:butt;stroke-linejoin:miter;stroke-opacity:1"
       d="m 232.40063,991.26015 c -1.00901,0.0719 -3.33161,1.44125 -3.71554,2.45666 -2.32257,6.14256 4.99471,1.01077 5.75908,0 0.63304,-0.83719 2.02053,0.24562 2.22933,0.24562 0.55017,0 -1.44591,-0.62974 -2.06097,-2.19899 -0.70213,-1.79141 0.0791,-4.57436 -0.53991,-4.43391 0,0 -0.3662,3.58528 -1.67199,3.93062 z"
       id="path4566-63-57-22"
       inkscape:connector-curvature="0"
       sodipodi:nodetypes="csssssc" />
    <path
       style="fill:#333333;fill-opacity:1;fill-rule:evenodd;stroke:none;stroke-width:1px;stroke-linecap:butt;stroke-linejoin:miter;stroke-opacity:1"
       d="m 223.33071,1010.3186 c -2.44426,0.094 -8.07059,1.8811 -9.00063,3.2064 -5.62626,8.0173 12.09933,1.3193 13.95097,0 1.53349,-1.0927 4.89457,0.3206 5.40038,0.3206 1.33275,0 -3.50262,-0.8219 -4.99256,-2.8701 -1.70085,-2.3382 0.19162,-5.9705 -1.30788,-5.7872 0,0 -0.8871,4.6795 -4.05028,5.1303 z"
       id="path4566-63-57-7"
       inkscape:connector-curvature="0"
       sodipodi:nodetypes="csssssc" />
  </g>
</svg>
