<?xml version="1.0" encoding="UTF-8" standalone="no"?>
<!-- Created with Inkscape (http://www.inkscape.org/) -->

<svg
   xmlns:dc="http://purl.org/dc/elements/1.1/"
   xmlns:cc="http://creativecommons.org/ns#"
   xmlns:rdf="http://www.w3.org/1999/02/22-rdf-syntax-ns#"
   xmlns:svg="http://www.w3.org/2000/svg"
   xmlns="http://www.w3.org/2000/svg"
   xmlns:sodipodi="http://sodipodi.sourceforge.net/DTD/sodipodi-0.dtd"
   xmlns:inkscape="http://www.inkscape.org/namespaces/inkscape"
   width="290"
   height="200"
   viewBox="0 0 290 200"
   id="svg2"
   version="1.1"
   inkscape:version="0.91 r13725"
   sodipodi:docname="fishes_v2.svg">
  <defs
     id="defs4" />
  <sodipodi:namedview
     id="base"
     pagecolor="#ffffff"
     bordercolor="#666666"
     borderopacity="1.0"
     inkscape:pageopacity="0.0"
     inkscape:pageshadow="2"
     inkscape:zoom="1.4"
     inkscape:cx="264.11941"
     inkscape:cy="110.30255"
     inkscape:document-units="px"
     inkscape:current-layer="layer1"
     showgrid="false"
     units="px"
     inkscape:window-width="1366"
     inkscape:window-height="706"
     inkscape:window-x="-8"
     inkscape:window-y="-8"
     inkscape:window-maximized="1" />
  <metadata
     id="metadata7">
    <rdf:RDF>
      <cc:Work
         rdf:about="">
        <dc:format>image/svg+xml</dc:format>
        <dc:type
           rdf:resource="http://purl.org/dc/dcmitype/StillImage" />
        <dc:title></dc:title>
      </cc:Work>
    </rdf:RDF>
  </metadata>
  <g
     inkscape:label="Layer 1"
     inkscape:groupmode="layer"
     id="layer1"
     transform="translate(0,-852.36216)">
    <path
       style="fill:#1a1a1a;fill-opacity:1;fill-rule:evenodd;stroke:none;stroke-width:1px;stroke-linecap:butt;stroke-linejoin:miter;stroke-opacity:1"
       d="m 167.60278,971.41351 c 0.87592,7.1178 -16.54463,11.0148 -16.54463,16.4186 0,3.8061 11.61148,-1.4791 11.96846,-1.7103 6.31124,-4.0885 7.06335,-12.3364 7.39228,-12.656 0.21133,-0.2053 3.22561,2.3944 4.22415,2.3944 0.26917,0 -3.70017,-3.9454 -3.87214,-4.4467 -0.7961,-2.3208 -0.10944,-4.211 -1.05605,-5.1308 -0.61455,-0.5972 -1.78738,4.342 -2.11207,5.1308 z"
       id="path4490-3"
       inkscape:connector-curvature="0"
       sodipodi:nodetypes="cssssssc" />
    <path
       style="fill:#1a1a1a;fill-opacity:1;fill-rule:evenodd;stroke:none;stroke-width:1px;stroke-linecap:butt;stroke-linejoin:miter;stroke-opacity:1"
       d="m 124.18681,918.04543 c 1.30013,11.32263 -24.557237,17.52193 -24.557237,26.11795 0,6.0545 17.234947,-2.3528 17.764807,-2.7206 9.36781,-6.50382 10.48416,-19.62422 10.97239,-20.13263 0.31368,-0.32665 4.78778,3.80891 6.26993,3.80891 0.39953,0 -5.49218,-6.27614 -5.74744,-7.07363 -1.18165,-3.6917 -0.16244,-6.69864 -1.56749,-8.16186 -0.91218,-0.94992 -2.65302,6.90714 -3.13496,8.16186 z"
       id="path4490-25-8"
       inkscape:connector-curvature="0"
       sodipodi:nodetypes="cssssssc" />
    <path
       style="fill:#1a1a1a;fill-opacity:1;fill-rule:evenodd;stroke:none;stroke-width:1px;stroke-linecap:butt;stroke-linejoin:miter;stroke-opacity:1"
       d="m 169.95913,947.4499 c 0.84941,7.5605 -16.04384,11.6999 -16.04384,17.4397 0,4.0427 11.26001,-1.5711 11.60618,-1.8167 6.12022,-4.3427 6.84956,-13.1035 7.16853,-13.443 0.20493,-0.2182 3.12797,2.5433 4.0963,2.5433 0.26102,0 -3.58818,-4.1908 -3.75495,-4.7233 -0.772,-2.465 -0.10612,-4.4728 -1.02408,-5.4499 -0.59595,-0.6343 -1.73328,4.6121 -2.04814,5.4499 z"
       id="path4490-25-5"
       inkscape:connector-curvature="0"
       sodipodi:nodetypes="cssssssc" />
    <path
       style="fill:#1a1a1a;fill-opacity:1;fill-rule:evenodd;stroke:none;stroke-width:1px;stroke-linecap:butt;stroke-linejoin:miter;stroke-opacity:1"
       d="m 150.61539,943.75971 c 1.30013,11.32263 -24.55724,17.52193 -24.55724,26.11793 0,6.0545 17.23495,-2.3528 17.76481,-2.7206 9.36781,-6.5038 10.48416,-19.6242 10.97239,-20.13261 0.31368,-0.32665 4.78778,3.80891 6.26993,3.80891 0.39953,0 -5.49218,-6.27614 -5.74744,-7.07363 -1.18165,-3.6917 -0.16244,-6.69864 -1.56749,-8.16186 -0.91218,-0.94992 -2.65302,6.90714 -3.13496,8.16186 z"
       id="path4490-25"
       inkscape:connector-curvature="0"
       sodipodi:nodetypes="cssssssc" />
    <path
       style="fill:#1a1a1a;fill-opacity:1;fill-rule:evenodd;stroke:none;stroke-width:1px;stroke-linecap:butt;stroke-linejoin:miter;stroke-opacity:1"
       d="m 197.85714,943.7907 c 0.38737,6.7223 3.49685,15.6397 5,17.1429 3.25154,3.2515 6.45413,-8.4948 5,-12.8571 -0.66369,-1.9911 -6.50871,-5.8746 -7.85715,-8.5715 -1.88581,-3.7716 0.59876,-9.2857 -1.42857,-9.2857 -0.30068,0 -0.52842,12.2704 -0.71428,13.5714 -1.43876,10.0714 0.37273,5.5747 0.71428,6.4286"
       id="path4397"
       inkscape:connector-curvature="0" />
    <path
       style="fill:#1a1a1a;fill-opacity:1;fill-rule:evenodd;stroke:none;stroke-width:1px;stroke-linecap:butt;stroke-linejoin:miter;stroke-opacity:1"
       d="m 150.80791,906.01004 c 0.38737,6.7223 3.49685,15.6397 5,17.1429 3.25154,3.2515 6.45413,-8.4948 5,-12.8571 -0.66369,-1.9911 -6.50871,-5.8746 -7.85715,-8.5715 -1.88581,-3.7716 0.59876,-9.2857 -1.42857,-9.2857 -0.30068,0 -0.52842,12.2704 -0.71428,13.5714 -1.43876,10.0714 0.37273,5.5747 0.71428,6.4286"
       id="path4397-7"
       inkscape:connector-curvature="0" />
    <path
       style="fill:#1a1a1a;fill-opacity:1;fill-rule:evenodd;stroke:none;stroke-width:1px;stroke-linecap:butt;stroke-linejoin:miter;stroke-opacity:1"
       d="m 144.23587,924.3391 c 0.2859,5.18703 2.58094,12.06784 3.69037,13.22773 2.39989,2.50891 4.76364,-6.55472 3.69038,-9.92074 -0.48985,-1.53637 -4.80392,-4.53294 -5.79917,-6.61391 -1.39187,-2.91022 0.44193,-7.16499 -1.05439,-7.16499 -0.22193,0 -0.39001,9.46803 -0.52719,10.47191 -1.06192,7.77125 0.2751,4.30152 0.52719,4.96041"
       id="path4397-2"
       inkscape:connector-curvature="0" />
    <path
       style="fill:#1a1a1a;fill-opacity:1;fill-rule:evenodd;stroke:none;stroke-width:1px;stroke-linecap:butt;stroke-linejoin:miter;stroke-opacity:1"
       d="m 171.91059,898.31485 c -0.34822,5.03351 -3.14351,11.71066 -4.49475,12.83622 -2.923,2.43465 -5.80197,-6.36071 -4.49477,-9.62711 0.59663,-1.49089 5.85102,-4.39876 7.0632,-6.41814 1.69525,-2.82409 -0.53827,-6.95293 1.28422,-6.95293 0.27029,0 0.47501,9.1878 0.6421,10.16196 1.29336,7.54124 -0.33508,4.17421 -0.6421,4.8136"
       id="path4397-24"
       inkscape:connector-curvature="0" />
    <path
       style="fill:#1a1a1a;fill-opacity:1;fill-rule:evenodd;stroke:none;stroke-width:1px;stroke-linecap:butt;stroke-linejoin:miter;stroke-opacity:1"
       d="m 132.69969,907.97813 c 0.20981,3.80529 1.89401,8.85317 2.70816,9.70409 1.76114,1.84058 3.49577,-4.80866 2.70817,-7.27803 -0.35948,-1.1271 -3.52533,-3.32543 -4.25569,-4.85207 -1.02142,-2.13499 0.32431,-5.25636 -0.77376,-5.25636 -0.16286,0 -0.28621,6.94591 -0.38688,7.68237 -0.77928,5.70112 0.20188,3.15567 0.38688,3.63904"
       id="path4397-6"
       inkscape:connector-curvature="0" />
    <path
       style="fill:#1a1a1a;fill-opacity:1;fill-rule:evenodd;stroke:none;stroke-width:1px;stroke-linecap:butt;stroke-linejoin:miter;stroke-opacity:1"
       d="m 139.0893,926.67073 c -0.32286,4.57293 -2.91452,10.6391 -4.16735,11.66167 -2.71006,2.21188 -5.37932,-5.77869 -4.16734,-8.7462 0.55316,-1.35447 5.42481,-3.99627 6.54869,-5.83087 1.57177,-2.56567 -0.49904,-6.31671 1.19067,-6.31671 0.25061,0 0.44042,8.34709 0.59533,9.23211 1.19917,6.8512 -0.31065,3.79226 -0.59533,4.37314"
       id="path4397-8"
       inkscape:connector-curvature="0" />
    <path
       style="fill:#1a1a1a;fill-opacity:1;fill-rule:evenodd;stroke:none;stroke-width:1px;stroke-linecap:butt;stroke-linejoin:miter;stroke-opacity:1"
       d="m 162.08993,890.76767 c -0.22139,5.18703 -1.99861,12.06784 -2.85772,13.22773 -1.85841,2.50891 -3.68884,-6.55472 -2.85773,-9.92074 0.37933,-1.53637 3.72002,-4.53294 4.49071,-6.61391 1.07784,-2.91022 -0.34221,-7.16499 0.8165,-7.16499 0.17185,0 0.30201,9.46803 0.40824,10.47191 0.82232,7.77125 -0.21303,4.30152 -0.40824,4.96041"
       id="path4397-1"
       inkscape:connector-curvature="0" />
    <path
       style="fill:#1a1a1a;fill-opacity:1;fill-rule:evenodd;stroke:none;stroke-width:1px;stroke-linecap:butt;stroke-linejoin:miter;stroke-opacity:1"
       d="m 177.01819,918.12609 c -0.27213,5.64761 -2.45656,13.1394 -3.51254,14.40228 -2.28423,2.73169 -4.53408,-7.13674 -3.51254,-10.80165 0.46625,-1.67278 4.57242,-4.93543 5.51971,-7.20118 1.3248,-3.16864 -0.42063,-7.80121 1.00358,-7.80121 0.21123,0 0.37122,10.30875 0.50179,11.40176 1.01074,8.46129 -0.26184,4.68348 -0.50179,5.40086"
       id="path4397-83"
       inkscape:connector-curvature="0" />
    <path
       style="fill:#1a1a1a;fill-opacity:1;fill-rule:evenodd;stroke:none;stroke-width:1px;stroke-linecap:butt;stroke-linejoin:miter;stroke-opacity:1"
       d="m 140.62857,895.45771 c 0.26054,5.03351 2.35196,11.71066 3.36297,12.83622 2.18697,2.43465 4.34101,-6.36071 3.36297,-9.62711 -0.44639,-1.49089 -4.37772,-4.39876 -5.28467,-6.41814 -1.26839,-2.82409 0.40272,-6.95293 -0.96085,-6.95293 -0.20224,0 -0.35541,9.1878 -0.48042,10.16196 -0.96771,7.54124 0.25069,4.17421 0.48042,4.8136"
       id="path4397-85"
       inkscape:connector-curvature="0" />
    <path
       style="fill:#1a1a1a;fill-opacity:1;fill-rule:evenodd;stroke:none;stroke-width:1px;stroke-linecap:butt;stroke-linejoin:miter;stroke-opacity:1"
       d="m 83.195682,976.48196 c -0.44969,5.18703 -4.05941,12.06788 -5.80438,13.22768 -3.77463,2.509 -7.49243,-6.55467 -5.80438,-9.92069 0.77047,-1.53637 7.55581,-4.53294 9.12118,-6.61391 2.18919,-2.91022 -0.69509,-7.16499 1.65839,-7.16499 0.34905,0 0.61343,9.46803 0.82919,10.47191 1.67022,7.77125 -0.43269,4.30152 -0.82919,4.96041"
       id="path4397-20"
       inkscape:connector-curvature="0" />
    <path
       style="fill:#1a1a1a;fill-opacity:1;fill-rule:evenodd;stroke:none;stroke-width:1px;stroke-linecap:butt;stroke-linejoin:miter;stroke-opacity:1"
       d="m 113.55745,984.58148 c 0.31127,6.72226 2.80992,15.63962 4.01778,17.14282 2.6128,3.2515 5.18627,-8.49476 4.01779,-12.85706 -0.53331,-1.99106 -5.23012,-5.87456 -6.31367,-8.5715 -1.51535,-3.7716 0.48114,-9.2857 -1.14794,-9.2857 -0.24161,0 -0.42461,12.27044 -0.57396,13.57144 -1.15613,10.07136 0.29951,5.57466 0.57396,6.42856"
       id="path4397-13"
       inkscape:connector-curvature="0" />
    <path
       style="fill:#1a1a1a;fill-opacity:1;fill-rule:evenodd;stroke:none;stroke-width:1px;stroke-linecap:butt;stroke-linejoin:miter;stroke-opacity:1"
       d="m 212.95076,929.58145 c 0.38737,6.7223 3.49685,15.6397 5,17.1429 3.25154,3.2515 6.45413,-8.4948 5,-12.8571 -0.66369,-1.9911 -6.50871,-5.8746 -7.85715,-8.5715 -1.88581,-3.7716 0.59876,-9.2857 -1.42857,-9.2857 -0.30068,0 -0.52842,12.2704 -0.71428,13.5714 -1.43876,10.0714 0.37273,5.5747 0.71428,6.4286"
       id="path4397-18"
       inkscape:connector-curvature="0" />
    <path
       style="fill:#1a1a1a;fill-opacity:1;fill-rule:evenodd;stroke:none;stroke-width:1px;stroke-linecap:butt;stroke-linejoin:miter;stroke-opacity:1"
       d="m 198.66506,898.86716 c 0.38737,6.7223 3.49685,15.6397 5,17.1429 3.25154,3.2515 6.45413,-8.4948 5,-12.8571 -0.66369,-1.9911 -6.50871,-5.8746 -7.85715,-8.5715 -1.88581,-3.7716 0.59876,-9.2857 -1.42857,-9.2857 -0.30068,0 -0.52842,12.2704 -0.71428,13.5714 -1.43876,10.0714 0.37273,5.5747 0.71428,6.4286"
       id="path4397-9"
       inkscape:connector-curvature="0" />
    <path
       style="fill:#1a1a1a;fill-opacity:1;fill-rule:evenodd;stroke:none;stroke-width:1px;stroke-linecap:butt;stroke-linejoin:miter;stroke-opacity:1"
       d="m 121.42857,894.50501 c -11.13981,-2.26354 -24.302442,2.72157 -28.719195,11.36851 0,0 -6.418161,9.92272 -4.137946,12.20293 5.30935,5.30935 15.783591,2.48381 23.447251,-3.02975 5.49515,-3.95343 10.62679,-11.75858 11.55275,-12.68454 2.94026,-2.94026 19.99999,2.72958 19.99999,-1.42858 0,-0.35495 -6.86004,-1.30649 -9.68342,-6.94366 -3.42813,-6.84464 -2.93771,-14.99315 -2.93771,-14.99315 z"
       id="path4177"
       inkscape:connector-curvature="0"
       sodipodi:nodetypes="csssssscc" />
    <path
       style="fill:#1a1a1a;fill-opacity:1;fill-rule:evenodd;stroke:none;stroke-width:1px;stroke-linecap:butt;stroke-linejoin:miter;stroke-opacity:1"
       d="m 112.03071,924.05921 c -11.13982,-2.26354 -24.302445,2.72157 -28.719195,11.36851 0,0 -6.41816,9.92272 -4.13795,12.20293 5.30935,5.30935 15.78359,2.48381 23.447255,-3.02975 5.49515,-3.95343 10.62679,-11.75858 11.55275,-12.68454 2.94026,-2.94026 20,2.72958 20,-1.42858 0,-0.35495 -6.86004,-1.30649 -9.68343,-6.94366 -3.42813,-6.84464 -2.93771,-14.99315 -2.93771,-14.99315 z"
       id="path4177-6"
       inkscape:connector-curvature="0"
       sodipodi:nodetypes="csssssscc" />
    <path
       style="fill:#1a1a1a;fill-opacity:1;fill-rule:evenodd;stroke:none;stroke-width:1px;stroke-linecap:butt;stroke-linejoin:miter;stroke-opacity:1"
       d="m 60.104194,952.84452 c -11.570003,-1.87774 -25.240931,2.25771 -29.828246,9.43086 0,0 -6.666012,8.23147 -4.297743,10.12305 5.514383,4.4044 16.393105,2.0604 24.352719,-2.51336 5.707354,-3.27959 11.037163,-9.75444 11.998882,-10.52257 3.053803,-2.43912 20.772328,2.26434 20.772328,-1.1851 0,-0.29445 -7.124955,-1.08381 -10.057362,-5.76018 -3.560515,-5.67803 -3.051157,-12.43769 -3.051157,-12.43769 z"
       id="path4177-9-6"
       inkscape:connector-curvature="0"
       sodipodi:nodetypes="csssssscc" />
    <path
       style="fill:#1a1a1a;fill-opacity:1;fill-rule:evenodd;stroke:none;stroke-width:1px;stroke-linecap:butt;stroke-linejoin:miter;stroke-opacity:1"
       d="m 80.894012,959.98739 c -12.430376,-1.87774 -27.117907,2.2577 -32.046345,9.43085 0,0 -7.161712,8.23148 -4.617333,10.12305 5.924445,4.40444 17.612135,2.06043 26.163644,-2.51336 6.131767,-3.27959 11.857913,-9.75443 12.891147,-10.52256 3.280892,-2.43913 22.317005,2.26433 22.317005,-1.1851 0,-0.29445 -7.65478,-1.08382 -10.805248,-5.76018 -3.825284,-5.67803 -3.278049,-12.4377 -3.278049,-12.4377 z"
       id="path4177-9"
       inkscape:connector-curvature="0"
       sodipodi:nodetypes="csssssscc" />
    <path
       style="fill:#1a1a1a;fill-opacity:1;fill-rule:evenodd;stroke:none;stroke-width:1px;stroke-linecap:butt;stroke-linejoin:miter;stroke-opacity:1"
       d="m 117.745,951.49465 c -11.13982,-1.99348 -24.302448,2.39686 -28.719198,10.01218 0,0 -6.41816,8.73883 -4.13795,10.74698 5.30935,4.67586 15.783588,2.18746 23.447258,-2.66832 5.49515,-3.48172 10.62679,-10.3556 11.55275,-11.17112 2.94026,-2.5895 19.99999,2.40393 19.99999,-1.25816 0,-0.31256 -6.86004,-1.15062 -9.68342,-6.11519 -3.42813,-6.02802 -2.93771,-13.20434 -2.93771,-13.20434 z"
       id="path4177-06"
       inkscape:connector-curvature="0"
       sodipodi:nodetypes="csssssscc" />
    <path
       style="fill:#1a1a1a;fill-opacity:1;fill-rule:evenodd;stroke:none;stroke-width:1px;stroke-linecap:butt;stroke-linejoin:miter;stroke-opacity:1"
       d="m 130.60214,951.91635 c -11.13982,-2.26354 -24.30244,2.72157 -28.7192,11.36851 0,0 -6.418157,9.92272 -4.137942,12.20293 5.309352,5.30934 15.783592,2.48381 23.447252,-3.02975 5.49515,-3.95343 10.62679,-11.75858 11.55275,-12.68454 2.94026,-2.94026 19.99999,2.72958 19.99999,-1.42858 0,-0.35495 -6.86004,-1.30649 -9.68342,-6.94366 -3.42813,-6.84464 -2.93771,-14.99315 -2.93771,-14.99315 z"
       id="path4177-0"
       inkscape:connector-curvature="0"
       sodipodi:nodetypes="csssssscc" />
    <path
       style="fill:#1a1a1a;fill-opacity:1;fill-rule:evenodd;stroke:none;stroke-width:1px;stroke-linecap:butt;stroke-linejoin:miter;stroke-opacity:1"
       d="m 91.237471,990.22954 c -9.562462,-1.1833 -20.861317,1.4228 -24.652678,5.9431 0,0 -5.509376,5.18716 -3.55203,6.37926 4.557566,2.7755 13.548698,1.2984 20.127222,-1.5839 4.717062,-2.06656 9.122079,-6.14686 9.916932,-6.63096 2.523931,-1.5371 17.168083,1.4269 17.168083,-0.7468 0,-0.1856 -5.8887,-0.683 -8.3123,-3.6299 -2.942718,-3.57819 -2.521736,-7.83795 -2.521736,-7.83795 z"
       id="path4177-9-2"
       inkscape:connector-curvature="0"
       sodipodi:nodetypes="csssssscc" />
    <path
       style="fill:#1a1a1a;fill-opacity:1;fill-rule:evenodd;stroke:none;stroke-width:1px;stroke-linecap:butt;stroke-linejoin:miter;stroke-opacity:1"
       d="m 76.381699,916.47249 c -9.84926,-1.26046 -21.486983,1.51552 -25.392052,6.33059 0,0 -5.674609,5.52552 -3.658559,6.79528 4.694261,2.95652 13.955048,1.38307 20.730871,-1.68716 4.858524,-2.20148 9.395662,-6.5478 10.214346,-7.06342 2.599626,-1.6373 17.682971,1.51999 17.682971,-0.79552 0,-0.19765 -6.065295,-0.72753 -8.561583,-3.8666 -3.030975,-3.81146 -2.597375,-8.34899 -2.597375,-8.34899 z"
       id="path4177-9-9"
       inkscape:connector-curvature="0"
       sodipodi:nodetypes="csssssscc" />
    <path
       style="fill:#1a1a1a;fill-opacity:1;fill-rule:evenodd;stroke:none;stroke-width:1px;stroke-linecap:butt;stroke-linejoin:miter;stroke-opacity:1"
       d="m 86.3817,925.7582 c -9.84926,-1.26046 -21.486983,1.51552 -25.392052,6.33059 0,0 -5.674609,5.52552 -3.658559,6.79528 4.694261,2.95652 13.955048,1.38307 20.730871,-1.68716 4.858524,-2.20148 9.395662,-6.5478 10.214346,-7.06342 2.599626,-1.6373 17.682974,1.51999 17.682974,-0.79552 0,-0.19765 -6.0653,-0.72753 -8.56159,-3.8666 -3.030971,-3.81146 -2.597371,-8.34899 -2.597371,-8.34899 z"
       id="path4177-9-9-0"
       inkscape:connector-curvature="0"
       sodipodi:nodetypes="csssssscc" />
    <path
       style="fill:#1a1a1a;fill-opacity:1;fill-rule:evenodd;stroke:none;stroke-width:1px;stroke-linecap:butt;stroke-linejoin:miter;stroke-opacity:1"
       d="m 48.524556,942.90106 c -9.84926,-1.26046 -21.486984,1.51552 -25.392053,6.33059 0,0 -5.674609,5.52552 -3.658559,6.79528 4.694261,2.95652 13.955049,1.38307 20.730872,-1.68716 4.858524,-2.20148 9.395662,-6.5478 10.214346,-7.06342 2.599626,-1.6373 17.682974,1.51999 17.682974,-0.79552 0,-0.19765 -6.0653,-0.72753 -8.56159,-3.8666 -3.030971,-3.81146 -2.597371,-8.34899 -2.597371,-8.34899 z"
       id="path4177-9-9-0-3"
       inkscape:connector-curvature="0"
       sodipodi:nodetypes="csssssscc" />
    <path
       style="fill:#1a1a1a;fill-opacity:1;fill-rule:evenodd;stroke:none;stroke-width:1px;stroke-linecap:butt;stroke-linejoin:miter;stroke-opacity:1"
       d="m 167.26525,927.60846 c 8.98889,-1.5305 19.61001,1.8402 23.17395,7.687 0,0 5.17891,6.7093 3.33898,8.2511 -4.2842,3.59 -12.73602,1.6795 -18.91995,-2.0485 -4.43412,-2.6732 -8.57492,-7.9508 -9.32209,-8.5769 -2.37253,-1.988 -16.13829,1.8457 -16.13829,-0.966 0,-0.2399 5.53547,-0.8833 7.81369,-4.695 2.76622,-4.6281 2.37049,-10.1378 2.37049,-10.1378 z"
       id="path4177-1"
       inkscape:connector-curvature="0"
       sodipodi:nodetypes="csssssscc" />
    <path
       style="fill:#1a1a1a;fill-opacity:1;fill-rule:evenodd;stroke:none;stroke-width:1px;stroke-linecap:butt;stroke-linejoin:miter;stroke-opacity:1"
       d="m 181.90812,912.96562 c 8.98889,-1.5305 19.61001,1.8402 23.17395,7.687 0,0 5.17891,6.7093 3.33898,8.2511 -4.2842,3.59 -12.73602,1.6795 -18.91995,-2.0485 -4.43412,-2.6732 -8.57492,-7.9508 -9.32209,-8.5769 -2.37253,-1.988 -16.13829,1.8457 -16.13829,-0.966 0,-0.2399 5.53547,-0.8833 7.81369,-4.695 2.76622,-4.6281 2.37049,-10.1378 2.37049,-10.1378 z"
       id="path4177-1-5"
       inkscape:connector-curvature="0"
       sodipodi:nodetypes="csssssscc" />
    <path
       style="fill:#1a1a1a;fill-opacity:1;fill-rule:evenodd;stroke:none;stroke-width:1px;stroke-linecap:butt;stroke-linejoin:miter;stroke-opacity:1"
       d="m 146.42857,971.64787 c -6.86446,6.2254 -2.89715,32.22283 4.28571,17.85717 3.83034,-7.66071 -3.57143,-17.71267 -3.57143,-24.28574"
       id="path4366"
       inkscape:connector-curvature="0" />
    <path
       style="fill:#1a1a1a;fill-opacity:1;fill-rule:evenodd;stroke:none;stroke-width:1px;stroke-linecap:butt;stroke-linejoin:miter;stroke-opacity:1"
       d="m 162.08913,969.01294 c -5.76799,4.3566 -2.43438,22.5498 3.60116,12.49663 3.21851,-5.3611 -3.00096,-12.3955 -3.00096,-16.99539"
       id="path4366-4"
       inkscape:connector-curvature="0" />
    <path
       style="fill:#1a1a1a;fill-opacity:1;fill-rule:evenodd;stroke:none;stroke-width:1px;stroke-linecap:butt;stroke-linejoin:miter;stroke-opacity:1"
       d="m 175.51457,974.33454 c -6.86446,4.66805 -2.89715,24.162 4.28571,13.39003 3.83034,-5.74429 -3.57143,-13.28168 -3.57143,-18.21037"
       id="path4366-5"
       inkscape:connector-curvature="0" />
    <path
       style="fill:#1a1a1a;fill-opacity:1;fill-rule:evenodd;stroke:none;stroke-width:1px;stroke-linecap:butt;stroke-linejoin:miter;stroke-opacity:1"
       d="m 171.94314,958.048 c -6.86446,3.42218 -2.89715,17.71335 4.28571,9.81633 3.83034,-4.21118 -3.57143,-9.73689 -3.57143,-13.35021"
       id="path4366-6"
       inkscape:connector-curvature="0" />
    <path
       style="fill:#1a1a1a;fill-opacity:1;fill-rule:evenodd;stroke:none;stroke-width:1px;stroke-linecap:butt;stroke-linejoin:miter;stroke-opacity:1"
       d="m 155.73617,942.07507 c 0.33664,4.4194 3.0389,10.28192 4.34519,11.27016 2.82571,2.13761 5.60889,-5.58469 4.34519,-8.45257 -0.57677,-1.309 -5.65631,-3.8621 -6.82816,-5.63511 -1.63884,-2.47954 0.52035,-6.10464 -1.24148,-6.10464 -0.2613,0 -0.45922,8.06685 -0.62074,8.92216 -1.25033,6.62118 0.32392,3.66494 0.62074,4.22632"
       id="path4397-3"
       inkscape:connector-curvature="0" />
    <path
       style="fill:#1a1a1a;fill-opacity:1;fill-rule:evenodd;stroke:none;stroke-width:1px;stroke-linecap:butt;stroke-linejoin:miter;stroke-opacity:1"
       d="m 132.85714,984.50504 c 1.77737,14.8636 -33.571427,23.00146 -33.571427,34.28566 0,7.948 23.561357,-3.0885 24.285717,-3.5714 12.80643,-8.5377 14.33256,-25.76116 15,-26.42856 0.42883,-0.4288 6.54523,5 8.57142,5 0.54619,0 -7.50818,-8.2388 -7.85714,-9.2857 -1.61539,-4.84621 -0.22206,-8.79351 -2.14286,-10.71431 -1.24702,-1.24702 -3.62687,9.06721 -4.28571,10.71431 z"
       id="path4490"
       inkscape:connector-curvature="0"
       sodipodi:nodetypes="cssssssc" />
    <path
       style="fill:#1a1a1a;fill-opacity:1;fill-rule:evenodd;stroke:none;stroke-width:1px;stroke-linecap:butt;stroke-linejoin:miter;stroke-opacity:1"
       d="m 92.257462,999.24304 c 1.273619,11.98656 -24.056455,18.54926 -24.056455,27.64926 0,6.4096 16.883487,-2.4907 17.402545,-2.8801 9.17677,-6.8852 10.270357,-20.7749 10.748628,-21.3131 0.307289,-0.3458 4.69015,4.0322 6.14207,4.0322 0.39138,0 -5.380178,-6.6441 -5.630234,-7.48826 -1.157549,-3.9082 -0.159123,-7.0915 -1.535521,-8.6405 -0.893583,-1.0057 -2.598925,7.3122 -3.071033,8.6405 z"
       id="path4490-2"
       inkscape:connector-curvature="0"
       sodipodi:nodetypes="cssssssc" />
    <path
       style="fill:#1a1a1a;fill-opacity:1;fill-rule:evenodd;stroke:none;stroke-width:1px;stroke-linecap:butt;stroke-linejoin:miter;stroke-opacity:1"
       d="m 54.252729,1008.2553 c 1.114538,8.6669 -21.051723,13.4121 -21.051723,19.992 0,4.6344 14.774681,-1.801 15.228904,-2.0825 8.030567,-4.9784 8.987559,-15.0214 9.406095,-15.4106 0.268902,-0.25 4.10433,2.9156 5.374905,2.9156 0.342497,0 -4.708178,-4.8041 -4.927,-5.4145 -1.012971,-2.8259 -0.139252,-5.1275 -1.343733,-6.2475 -0.781967,-0.7272 -2.274304,5.287 -2.687448,6.2475 z"
       id="path4490-25-1"
       inkscape:connector-curvature="0"
       sodipodi:nodetypes="cssssssc" />
    <path
       style="fill:#1a1a1a;fill-opacity:1;fill-rule:evenodd;stroke:none;stroke-width:1px;stroke-linecap:butt;stroke-linejoin:miter;stroke-opacity:1"
       d="m 64.173567,991.20204 c -11.13982,-2.2635 -24.30244,2.7216 -28.7192,11.36846 0,0 -6.418157,9.9227 -4.137942,12.2029 5.309352,5.3094 15.783592,2.4838 23.447252,-3.0297 5.49515,-3.9535 10.62679,-11.75856 11.55275,-12.68446 2.94026,-2.9403 19.99999,2.72946 19.99999,-1.4286 0,-0.355 -6.86004,-1.3065 -9.68342,-6.9437 -3.42813,-6.84461 -2.93771,-14.99312 -2.93771,-14.99312 z"
       id="path4177-0-7"
       inkscape:connector-curvature="0"
       sodipodi:nodetypes="csssssscc" />
    <path
       style="fill:#1a1a1a;fill-opacity:1;fill-rule:evenodd;stroke:none;stroke-width:1px;stroke-linecap:butt;stroke-linejoin:miter;stroke-opacity:1"
       d="m 184.32937,952.24 c -1.11257,10.2161 21.01449,15.8095 21.01449,23.5654 0,5.4629 -14.74855,-2.1228 -15.20197,-2.4547 -8.01636,-5.8682 -8.97166,-17.7063 -9.38946,-18.165 -0.26843,-0.2947 -4.09707,3.4366 -5.36539,3.4366 -0.3419,0 4.69985,-5.6627 4.91828,-6.3823 1.01118,-3.3309 0.139,-6.044 1.34135,-7.3642 0.78059,-0.8571 2.27029,6.2321 2.6827,7.3642 z"
       id="path4490-0"
       inkscape:connector-curvature="0"
       sodipodi:nodetypes="cssssssc" />
    <ellipse
       style="opacity:1;fill:#1a1a1a;fill-opacity:1;fill-rule:nonzero;stroke:none;stroke-width:1;stroke-linecap:round;stroke-linejoin:round;stroke-miterlimit:4;stroke-dasharray:none;stroke-dashoffset:0;stroke-opacity:1"
       id="path4578"
       cx="177.85715"
       cy="898.43359"
       rx="2.8571429"
       ry="4.6428571" />
    <ellipse
       style="opacity:1;fill:#1a1a1a;fill-opacity:1;fill-rule:nonzero;stroke:none;stroke-width:1;stroke-linecap:round;stroke-linejoin:round;stroke-miterlimit:4;stroke-dasharray:none;stroke-dashoffset:0;stroke-opacity:1"
       id="path4580"
       cx="186.42857"
       cy="889.86218"
       rx="2.8571429"
       ry="4.6428571" />
    <ellipse
       style="opacity:1;fill:#1a1a1a;fill-opacity:1;fill-rule:nonzero;stroke:none;stroke-width:1;stroke-linecap:round;stroke-linejoin:round;stroke-miterlimit:4;stroke-dasharray:none;stroke-dashoffset:0;stroke-opacity:1"
       id="path4582"
       cx="189.64285"
       cy="905.57648"
       rx="2.5"
       ry="4.6428571" />
    <ellipse
       style="opacity:1;fill:#1a1a1a;fill-opacity:1;fill-rule:nonzero;stroke:none;stroke-width:1;stroke-linecap:round;stroke-linejoin:round;stroke-miterlimit:4;stroke-dasharray:none;stroke-dashoffset:0;stroke-opacity:1"
       id="path4588"
       cx="151.78572"
       cy="888.43359"
       rx="2.5"
       ry="3.2142856" />
    <ellipse
       style="opacity:1;fill:#1a1a1a;fill-opacity:1;fill-rule:nonzero;stroke:none;stroke-width:1;stroke-linecap:round;stroke-linejoin:round;stroke-miterlimit:4;stroke-dasharray:none;stroke-dashoffset:0;stroke-opacity:1"
       id="path4590"
       cx="159.28572"
       cy="878.43359"
       rx="2.1428571"
       ry="4.6428571" />
    <ellipse
       style="opacity:1;fill:#1a1a1a;fill-opacity:1;fill-rule:nonzero;stroke:none;stroke-width:1;stroke-linecap:round;stroke-linejoin:round;stroke-miterlimit:4;stroke-dasharray:none;stroke-dashoffset:0;stroke-opacity:1"
       id="path4578-8"
       cx="170"
       cy="885.93359"
       rx="2.8571429"
       ry="4.6428571" />
    <ellipse
       style="opacity:1;fill:#1a1a1a;fill-opacity:1;fill-rule:nonzero;stroke:none;stroke-width:1;stroke-linecap:round;stroke-linejoin:round;stroke-miterlimit:4;stroke-dasharray:none;stroke-dashoffset:0;stroke-opacity:1"
       id="path4578-9"
       cx="144.28572"
       cy="909.505"
       rx="2.8571429"
       ry="4.6428571" />
  </g>
</svg>
