<?xml version="1.0" encoding="UTF-8" standalone="no"?>
<!-- Created with Inkscape (http://www.inkscape.org/) -->

<svg
   xmlns:dc="http://purl.org/dc/elements/1.1/"
   xmlns:cc="http://creativecommons.org/ns#"
   xmlns:rdf="http://www.w3.org/1999/02/22-rdf-syntax-ns#"
   xmlns:svg="http://www.w3.org/2000/svg"
   xmlns="http://www.w3.org/2000/svg"
   xmlns:sodipodi="http://sodipodi.sourceforge.net/DTD/sodipodi-0.dtd"
   xmlns:inkscape="http://www.inkscape.org/namespaces/inkscape"
   width="290"
   height="200"
   viewBox="0 0 290 200"
   id="svg2"
   version="1.1"
   inkscape:version="0.91 r13725"
   sodipodi:docname="kraken.svg">
  <defs
     id="defs4" />
  <sodipodi:namedview
     id="base"
     pagecolor="#ffffff"
     bordercolor="#666666"
     borderopacity="1.0"
     inkscape:pageopacity="0.0"
     inkscape:pageshadow="2"
     inkscape:zoom="1.4"
     inkscape:cx="290.67623"
     inkscape:cy="110.30255"
     inkscape:document-units="px"
     inkscape:current-layer="layer1"
     showgrid="false"
     units="px"
     inkscape:window-width="1366"
     inkscape:window-height="706"
     inkscape:window-x="-8"
     inkscape:window-y="-8"
     inkscape:window-maximized="1" />
  <metadata
     id="metadata7">
    <rdf:RDF>
      <cc:Work
         rdf:about="">
        <dc:format>image/svg+xml</dc:format>
        <dc:type
           rdf:resource="http://purl.org/dc/dcmitype/StillImage" />
        <dc:title></dc:title>
      </cc:Work>
    </rdf:RDF>
  </metadata>
  <g
     inkscape:label="Layer 1"
     inkscape:groupmode="layer"
     id="layer1"
     transform="translate(0,-852.36216)">
    <path
       style="fill:#333333;fill-rule:evenodd;stroke:none;stroke-width:1px;stroke-linecap:butt;stroke-linejoin:miter;stroke-opacity:1"
       d="m 140.9456,931.81699 c 10.1234,5.63705 14.21633,0.37656 24.06439,3.32306 11.10356,3.32216 10.80261,8.31371 15.73442,14.95383 28.76975,38.73514 -51.11711,58.09422 -66.63989,23.26149"
       id="path4824"
       inkscape:connector-curvature="0" />
    <path
       style="fill:#333333;fill-rule:evenodd;stroke:none;stroke-width:1px;stroke-linecap:butt;stroke-linejoin:miter;stroke-opacity:1"
       d="m 139.09449,932.64775 c 2.56883,-0.82326 23.10814,-9.99677 26.84106,-6.64613 14.20975,12.75452 44.60784,-2.41096 49.97991,0 7.0575,3.16736 33.41126,29.82568 22.21331,39.87684 -25.31409,22.72166 -53.75694,12.09648 -66.6399,20.76919"
       id="path4826"
       inkscape:connector-curvature="0"
       sodipodi:nodetypes="csssc" />
    <path
       style="fill:#333333;fill-rule:evenodd;stroke:none;stroke-width:1px;stroke-linecap:butt;stroke-linejoin:miter;stroke-opacity:1"
       d="m 210.36213,980.83227 c 0,0 28.01915,17.14106 34.47314,16.1588 17.01123,-2.58902 -7.4845,-42.04504 -5.78094,-43.57412 6.48472,-5.8206 16.65995,-23.77548 16.65995,-31.56918 0,-2.26384 -2.38229,-20.59219 -6.47888,-22.43071 -4.77006,-2.14078 -38.32663,26.0939 -38.87327,26.58456 -5.93282,5.32524 4.21032,25.46043 5.55333,29.07686 3.52288,9.48631 -11.43563,18.71391 -5.55333,25.75379 z"
       id="path4828"
       inkscape:connector-curvature="0"
       sodipodi:nodetypes="cssssssc" />
    <path
       style="fill:#333333;fill-rule:evenodd;stroke:none;stroke-width:1px;stroke-linecap:butt;stroke-linejoin:miter;stroke-opacity:1"
       d="m 152.9778,945.94004 c 8.77187,-13.39115 -6.17009,-34.61581 0.92556,-47.35375 1.39149,-2.498 25.98192,-31.12397 19.43663,-34.06147 -2.3904,-1.07279 -5.68145,4.26883 -7.40444,5.81538 -23.95368,21.50056 -18.43264,54.76025 -21.28774,57.32295 -1.519,1.36343 -10.46555,2.78003 -12.95776,1.66154 -2.78249,-1.24878 -27.75735,-39.03775 -37.022156,-47.35375 -3.921105,-3.51955 -0.104616,-12.50847 -5.553323,-14.95382 -8.562498,-3.8428 -20.181206,8.47012 -13.88331,14.12305 7.660654,6.87611 55.538009,35.71872 33.319949,55.66142 -12.132916,10.89038 -73.91685,-39.99126 -93.480958,-22.43072 -1.963397,1.76233 6.019663,-1.38248 8.329986,0 8.122885,4.86067 12.487379,9.13844 23.138849,9.13844 14.715016,0 59.249783,22.39214 52.756582,39.87685 -3.699848,9.96282 -69.274231,40.83534 -53.682136,54.83064 0.204813,0.1839 6.502182,4.9846 7.404432,4.9846 5.934462,0 -0.515185,-11.3524 2.776662,-15.7846 4.807632,-6.4729 28.963656,-32.15622 42.575483,-19.93839 4.56847,4.10062 -1.774724,11.90499 0,18.27689 2.38106,8.5489 14.72856,31.4971 20.36218,36.5538 3.81583,3.425 1.87281,-17.4267 -1.85111,-20.7693 -5.02956,-4.5144 -13.91212,-35.50875 5.55333,-39.87675 22.57721,-5.06627 40.1182,64.51315 53.68213,52.33835 3.27068,-2.9357 -10.18109,-23.2614 -10.18109,-23.2614 -7.87689,1.4055 -5.43986,-11.52899 -12.03222,-17.44621 -4.97504,-4.46556 -12.45398,-9.06488 -15.7344,-14.95382 -4.69894,-8.43546 15.73443,-19.54315 15.73443,-29.07686"
       id="path4832"
       inkscape:connector-curvature="0"
       sodipodi:nodetypes="cssssssssssssscsssssssssssc" />
  </g>
</svg>
