<?xml version="1.0" encoding="UTF-8" standalone="no"?>
<!-- Created with Inkscape (http://www.inkscape.org/) -->

<svg
   xmlns:dc="http://purl.org/dc/elements/1.1/"
   xmlns:cc="http://creativecommons.org/ns#"
   xmlns:rdf="http://www.w3.org/1999/02/22-rdf-syntax-ns#"
   xmlns:svg="http://www.w3.org/2000/svg"
   xmlns="http://www.w3.org/2000/svg"
   xmlns:sodipodi="http://sodipodi.sourceforge.net/DTD/sodipodi-0.dtd"
   xmlns:inkscape="http://www.inkscape.org/namespaces/inkscape"
   width="150mm"
   height="150mm"
   viewBox="0 0 531.49607 531.49606"
   id="svg2"
   version="1.1"
   inkscape:version="0.91 r13725"
   sodipodi:docname="paw.svg">
  <defs
     id="defs4" />
  <sodipodi:namedview
     id="base"
     pagecolor="#ffffff"
     bordercolor="#666666"
     borderopacity="1.0"
     inkscape:pageopacity="0.0"
     inkscape:pageshadow="2"
     inkscape:zoom="0.8306295"
     inkscape:cx="433.82017"
     inkscape:cy="310.21849"
     inkscape:document-units="px"
     inkscape:current-layer="layer1"
     showgrid="false"
     inkscape:window-width="1366"
     inkscape:window-height="706"
     inkscape:window-x="-8"
     inkscape:window-y="-8"
     inkscape:window-maximized="1" />
  <metadata
     id="metadata7">
    <rdf:RDF>
      <cc:Work
         rdf:about="">
        <dc:format>image/svg+xml</dc:format>
        <dc:type
           rdf:resource="http://purl.org/dc/dcmitype/StillImage" />
        <dc:title></dc:title>
      </cc:Work>
    </rdf:RDF>
  </metadata>
  <g
     inkscape:label="Layer 1"
     inkscape:groupmode="layer"
     id="layer1"
     transform="translate(0,-520.86618)">
    <path
       style="fill:none;fill-rule:evenodd;stroke:none;stroke-width:1px;stroke-linecap:butt;stroke-linejoin:round;stroke-opacity:1"
       d="m 126.09531,1000.8749 c 102.85714,-27.10582 139.99999,-29.58292 242.85713,11.4286 16.82137,-45.71428 59.68801,-94.28571 31.42858,-139.99999 -136.49514,-195.80354 -218.0899,-93.57646 -302.857147,-8.57143 -2.230333,45.71428 7.948497,91.42857 28.571437,137.14282 z"
       id="path4193"
       inkscape:connector-curvature="0"
       sodipodi:nodetypes="ccccc" />
    <path
       style="opacity:1;fill:#000000;fill-opacity:1;stroke:none;stroke-width:1;stroke-linecap:round;stroke-linejoin:round;stroke-miterlimit:4;stroke-dasharray:none;stroke-opacity:1"
       d="m 337.41104,956.88231 c -56.45918,-21.97549 -99.70055,54.07679 -154.35962,18.33913 l -33.9124,-22.17287 -5.56725,-14.1979 c -9.79379,-24.97666 -14.76408,-47.43816 -16.2001,-73.2108 l 4.62013,-25.11529 22.61591,-26.9142 c 29.23164,-34.78729 55.43843,-46.67859 76.42564,-53.25504 41.35926,-12.9601 82.1703,7.53752 128.24805,64.41346 33.24556,41.03659 34.02259,51.86989 7.63467,106.44084 l -15.12128,31.27123 z"
       id="path4199"
       inkscape:connector-curvature="0"
       sodipodi:nodetypes="sscsscsssscs" />
    <path
       style="fill:#000000;fill-opacity:1;fill-rule:evenodd;stroke:#000000;stroke-width:1.16800678px;stroke-linecap:butt;stroke-linejoin:miter;stroke-opacity:1"
       d="m 101.14055,813.38226 c 22.64731,12.08385 51.68755,-29.73925 38.43375,-47.89035 -4.41173,-6.04187 -57.416624,-81.03647 -62.470304,-74.11543 -29.39176,40.25206 -11.32936,122.00578 24.036554,122.00578 z"
       id="path4201"
       inkscape:connector-curvature="0"
       sodipodi:nodetypes="cssc" />
    <path
       style="fill:#000000;fill-opacity:1;fill-rule:evenodd;stroke:#000000;stroke-width:1.3515389px;stroke-linecap:butt;stroke-linejoin:miter;stroke-opacity:1"
       d="m 428.03509,829.54385 c -31.36074,11.68428 -79.67147,-25.26579 -69.89198,-47.47087 0,0 87.84289,-102.8029 94.84096,-96.11072 40.70009,38.92106 24.02378,143.58159 -24.94898,143.58159 z"
       id="path4201-0"
       inkscape:connector-curvature="0"
       sodipodi:nodetypes="cssc" />
    <path
       style="fill:#000000;fill-opacity:1;fill-rule:evenodd;stroke:#000000;stroke-width:0.9244473px;stroke-linecap:butt;stroke-linejoin:miter;stroke-opacity:1"
       d="m 164.0187,741.54599 c 13.06764,14.50747 33.96736,12.36252 52.48849,7.76393 76.39277,-18.96748 -27.49682,-141.0697 -36.85363,-136.42332 -17.98129,8.92911 -38.48917,108.72872 -18.98518,125.332"
       id="path4218"
       inkscape:connector-curvature="0" />
    <path
       style="fill:#000000;fill-opacity:1;fill-rule:evenodd;stroke:#000000;stroke-width:0.96007293px;stroke-linecap:butt;stroke-linejoin:miter;stroke-opacity:1"
       d="m 348.45635,739.76241 c -13.40598,15.25226 -34.84683,12.99719 -53.84748,8.16251 -78.37071,-19.94124 28.20874,-148.31205 37.8078,-143.42713 18.44686,9.38752 39.48573,114.31072 19.47675,131.76639"
       id="path4218-7"
       inkscape:connector-curvature="0" />
  </g>
</svg>
