<?xml version="1.0" encoding="UTF-8" standalone="no"?>
<!-- Created with Inkscape (http://www.inkscape.org/) -->

<svg
   xmlns:dc="http://purl.org/dc/elements/1.1/"
   xmlns:cc="http://creativecommons.org/ns#"
   xmlns:rdf="http://www.w3.org/1999/02/22-rdf-syntax-ns#"
   xmlns:svg="http://www.w3.org/2000/svg"
   xmlns="http://www.w3.org/2000/svg"
   xmlns:sodipodi="http://sodipodi.sourceforge.net/DTD/sodipodi-0.dtd"
   xmlns:inkscape="http://www.inkscape.org/namespaces/inkscape"
   width="300"
   height="350"
   viewBox="0 0 300 350"
   id="svg2"
   version="1.1"
   inkscape:version="0.91 r13725"
   sodipodi:docname="sprout.svg">
  <defs
     id="defs4">
    <inkscape:path-effect
       effect="spiro"
       id="path-effect5960"
       is_visible="true" />
    <inkscape:path-effect
       effect="spiro"
       id="path-effect5946"
       is_visible="true" />
    <inkscape:path-effect
       effect="spiro"
       id="path-effect5942"
       is_visible="true" />
    <inkscape:path-effect
       effect="spiro"
       id="path-effect5926"
       is_visible="true" />
    <inkscape:path-effect
       effect="spiro"
       id="path-effect5910"
       is_visible="true" />
    <inkscape:path-effect
       effect="spiro"
       id="path-effect5902"
       is_visible="true" />
    <inkscape:path-effect
       effect="spiro"
       id="path-effect4315"
       is_visible="true" />
    <inkscape:path-effect
       effect="spiro"
       id="path-effect4289"
       is_visible="true" />
    <inkscape:path-effect
       effect="spiro"
       id="path-effect4277"
       is_visible="true" />
    <inkscape:perspective
       sodipodi:type="inkscape:persp3d"
       inkscape:vp_x="0 : 100 : 1"
       inkscape:vp_y="0 : 1000 : 0"
       inkscape:vp_z="100 : 100 : 1"
       inkscape:persp3d-origin="50 : 66.666667 : 1"
       id="perspective4239" />
    <inkscape:path-effect
       effect="spiro"
       id="path-effect4289-1"
       is_visible="true" />
  </defs>
  <sodipodi:namedview
     id="base"
     pagecolor="#ffffff"
     bordercolor="#666666"
     borderopacity="1.0"
     inkscape:pageopacity="0.0"
     inkscape:pageshadow="2"
     inkscape:zoom="1.06"
     inkscape:cx="44.642857"
     inkscape:cy="95.740993"
     inkscape:document-units="px"
     inkscape:current-layer="layer1"
     showgrid="false"
     units="px"
     inkscape:window-width="1366"
     inkscape:window-height="706"
     inkscape:window-x="-8"
     inkscape:window-y="-8"
     inkscape:window-maximized="1"
     showguides="true"
     inkscape:guide-bbox="true" />
  <metadata
     id="metadata7">
    <rdf:RDF>
      <cc:Work
         rdf:about="">
        <dc:format>image/svg+xml</dc:format>
        <dc:type
           rdf:resource="http://purl.org/dc/dcmitype/StillImage" />
        <dc:title></dc:title>
      </cc:Work>
    </rdf:RDF>
  </metadata>
  <g
     inkscape:label="Layer 1"
     inkscape:groupmode="layer"
     id="layer1"
     transform="translate(0,-702.36214)">
    <text
       xml:space="preserve"
       style="font-style:normal;font-weight:normal;font-size:40px;line-height:125%;font-family:sans-serif;letter-spacing:0px;word-spacing:0px;fill:#000000;fill-opacity:1;stroke:none;stroke-width:1px;stroke-linecap:butt;stroke-linejoin:miter;stroke-opacity:1"
       x="109.60155"
       y="939.7301"
       id="text4182"
       sodipodi:linespacing="125%"><tspan
         sodipodi:role="line"
         x="109.60155"
         y="939.7301"
         id="tspan4186" /></text>
    <path
       style="fill:none;fill-rule:evenodd;stroke:#000000;stroke-width:1px;stroke-linecap:butt;stroke-linejoin:miter;stroke-opacity:1"
       d="m 152.6251,911.22658 0,0 z"
       id="path4275"
       inkscape:path-effect="#path-effect4277"
       inkscape:original-d="m 152.6251,911.22658 c 63.18101,-57.07535 53.62222,35.74814 0,0 z"
       inkscape:connector-curvature="0" />
    <path
       style="fill:none;fill-rule:evenodd;stroke:#000000;stroke-width:1.60000002;stroke-linecap:butt;stroke-linejoin:miter;stroke-miterlimit:4;stroke-dasharray:none;stroke-opacity:1"
       d="m 140.50327,873.85094 c 4.85479,0.11579 9.73499,-1.16533 13.90694,-3.65074 4.17194,-2.48542 7.62205,-6.16704 9.83165,-10.4914 1.69163,-3.31065 2.65171,-6.94018 4.06605,-10.37844 1.41434,-3.43826 3.40601,-6.8153 6.54055,-8.81446 1.87602,-1.1965 4.09422,-1.83654 6.31898,-1.87524 2.22476,-0.0387 4.45081,0.51821 6.42012,1.55401 3.93863,2.07159 6.73525,6.0373 7.74815,10.37069 1.01291,4.33339 0.32496,8.97638 -1.53977,13.01705 -1.86473,4.04067 -4.85664,7.50008 -8.34088,10.26853 -6.33082,5.03023 -14.38995,7.84219 -22.4759,7.84219 -8.08594,0 -16.14507,-2.81196 -22.47589,-7.84219 z"
       id="path4287"
       inkscape:path-effect="#path-effect4289"
       inkscape:original-d="m 140.50327,873.85094 c 1.54726,-11.4064 15.90693,-10.22631 23.73859,-14.14214 8.75229,-4.37615 6.06132,-14.64761 10.6066,-19.1929 4.10767,-4.10767 12.22669,26.04465 10.6066,33.33504 -7.37042,33.16687 -32.82478,8.66215 -44.95179,0 z"
       inkscape:connector-curvature="0" />
    <path
       style="fill:none;fill-rule:evenodd;stroke:#000000;stroke-width:1.19099998;stroke-linecap:butt;stroke-linejoin:miter;stroke-miterlimit:4;stroke-dasharray:none;stroke-opacity:1"
       d="m 140.71565,873.4527 c -2.77615,0.0112 -5.55113,-0.76923 -7.91439,-2.22599 -2.36326,-1.45675 -4.30735,-3.58518 -5.54464,-6.07038 -0.96419,-1.93666 -1.49658,-4.05567 -2.29075,-6.06804 -0.79416,-2.01236 -1.9202,-3.99519 -3.72287,-5.1913 -1.09849,-0.72887 -2.40862,-1.12682 -3.72642,-1.1632 -1.3178,-0.0364 -2.63992,0.28531 -3.80855,0.89541 -2.33727,1.22019 -3.98972,3.58096 -4.5667,6.15366 -0.57698,2.5727 -0.12981,5.32137 1.01818,7.69493 1.148,2.37356 2.96634,4.38532 5.06988,5.97491 3.63754,2.74878 8.1838,4.27335 12.74313,4.27335 4.55933,0 9.10559,-1.52457 12.74313,-4.27335 z"
       id="path4287-8"
       inkscape:path-effect="#path-effect4289-1"
       inkscape:original-d="m 140.71565,873.4527 c -0.87725,-6.69147 -9.01873,-5.99918 -13.45903,-8.29637 -4.96228,-2.56723 -3.43658,-8.5929 -6.01362,-11.25934 -2.32891,-2.40972 -6.93214,15.27887 -6.01361,19.55571 4.1788,19.45706 18.61063,5.08157 25.48626,0 z"
       inkscape:connector-curvature="0" />
    <path
       style="fill:none;fill-rule:evenodd;stroke:#000000;stroke-width:1px;stroke-linecap:butt;stroke-linejoin:miter;stroke-opacity:1"
       d="m 142.52358,874.86108 c 3.7386,2.36775 8.13197,3.6897 12.55639,3.77818 4.42443,0.0885 8.86713,-1.05673 12.69742,-3.2731 1.56379,-0.90487 3.05936,-2.0185 4.04061,-3.53553 0.61387,-0.94906 1.00485,-2.02197 1.51523,-3.03046 1.14393,-2.26037 2.90932,-4.2023 5.05076,-5.55584"
       id="path4313"
       inkscape:path-effect="#path-effect4315"
       inkscape:original-d="m 142.52358,874.86108 c 2.95108,-0.63933 23.64407,2.11482 25.25381,0.50508 1.27898,-1.27897 2.7118,-2.20672 4.04061,-3.53553 0.6387,-0.6387 0.92496,-2.4402 1.51523,-3.03046 1.82914,-1.82914 3.5621,-2.57852 5.05076,-5.55584"
       inkscape:connector-curvature="0" />
    <path
       style="opacity:1;fill:#55d400;fill-opacity:1;stroke:#000000;stroke-width:0.30405593;stroke-linejoin:miter;stroke-miterlimit:4;stroke-dasharray:none;stroke-opacity:0"
       d="m 156.60462,880.07693 c -1.32247,-0.32232 -1.0508,-0.44768 2.13555,-0.98542 7.88128,-1.33006 11.88133,-3.8396 14.99514,-9.40762 0.99451,-1.77835 2.49038,-3.80738 3.32416,-4.50896 0.83378,-0.70158 1.51597,-1.51756 1.51597,-1.81328 0,-1.94326 -3.94034,1.62198 -5.94511,5.37917 -1.97281,3.6973 -3.65719,5.29895 -7.34782,6.98693 -5.96143,2.72658 -13.21218,2.80274 -18.86196,0.19812 l -2.44284,-1.12617 2.0203,-0.38781 c 5.77411,-1.10837 10.81986,-3.96265 14.99929,-8.48481 2.85393,-3.08796 4.63947,-6.32339 6.7793,-12.28423 2.63512,-7.34054 4.94811,-10.8407 8.29064,-12.54593 6.25625,-3.1917 13.63549,-0.38667 16.99835,6.46149 1.24125,2.52769 1.41827,3.46269 1.40799,7.43687 -0.0101,3.88939 -0.21361,4.9804 -1.40988,7.55661 -3.55863,7.66365 -10.23171,13.27332 -19.54993,16.4345 -2.46233,0.83534 -4.77203,1.15334 -9.33301,1.28495 -3.3335,0.0962 -6.74277,0.009 -7.57614,-0.19441 z"
       id="path5855"
       inkscape:connector-curvature="0" />
    <path
       style="opacity:1;fill:#55d400;fill-opacity:1;stroke:#000000;stroke-width:0.30405593;stroke-linejoin:miter;stroke-miterlimit:4;stroke-dasharray:none;stroke-opacity:0"
       d="m 123.26958,876.28628 c -7.871,-2.04959 -13.36725,-7.89427 -13.37958,-14.22781 -0.009,-4.65306 3.15205,-8.32588 7.1659,-8.32588 3.88564,0 5.60792,1.64005 7.77872,7.40732 0.68065,1.80833 1.67706,4.1494 2.21425,5.20237 1.42162,2.78659 5.1746,5.86389 8.5063,6.97483 l 2.8667,0.95589 -3.02983,1.13393 c -3.71626,1.39083 -8.75467,1.75631 -12.12246,0.87935 z"
       id="path5857"
       inkscape:connector-curvature="0" />
    <path
       style="opacity:1;fill:#55d400;fill-opacity:1;stroke:#000000;stroke-width:0.07601398;stroke-linejoin:miter;stroke-miterlimit:4;stroke-dasharray:none;stroke-opacity:0"
       d="m 154.26752,879.71501 c -0.76393,-0.2014 -1.61625,-0.45235 -1.89404,-0.55766 l -0.50508,-0.19148 0.88389,0.0893 c 0.48613,0.0491 1.90666,0.0869 3.15672,0.0839 l 2.27285,-0.005 -1.01628,0.2032 c -1.2551,0.25097 -1.4459,0.35008 -1.12529,0.58451 0.21828,0.15961 0.2136,0.16982 -0.0756,0.16498 -0.16953,-0.003 -0.93327,-0.16993 -1.6972,-0.37133 z"
       id="path5859"
       inkscape:connector-curvature="0" />
    <path
       style="opacity:1;fill:#55d400;fill-opacity:1;stroke:#000000;stroke-width:0.07601398;stroke-linejoin:miter;stroke-miterlimit:4;stroke-dasharray:none;stroke-opacity:0"
       d="m 125.92011,876.98277 c -7.49357,-0.93639 -13.81309,-5.48444 -15.76956,-11.34909 -1.75367,-5.25674 0.59777,-10.59209 5.28058,-11.98148 0.90159,-0.2675 2.7775,-0.2675 3.6791,0 2.08297,0.61802 3.64798,2.15062 4.84774,4.74733 0.71447,1.54639 0.63433,1.77509 -0.0969,0.27653 -1.83036,-3.75105 -3.48177,-4.9748 -6.71332,-4.9748 -1.86861,0 -3.35241,0.6305 -4.74709,2.01715 -1.67128,1.66167 -2.38398,3.3475 -2.48708,5.88296 -0.12791,3.14577 0.89352,5.91036 3.18845,8.62985 2.48153,2.9406 6.7539,5.39108 10.92404,6.26565 2.98177,0.62534 7.61908,0.24162 10.90377,-0.90227 1.63323,-0.56876 1.90134,-0.63089 1.31003,-0.30358 -0.69503,0.38473 -2.86862,1.08396 -4.32198,1.39035 -1.23367,0.26008 -4.86724,0.44267 -5.99778,0.3014 z"
       id="path5861"
       inkscape:connector-curvature="0" />
    <path
       style="opacity:1;fill:#55d400;fill-opacity:1;stroke:#000000;stroke-width:0.07601398;stroke-linejoin:miter;stroke-miterlimit:4;stroke-dasharray:none;stroke-opacity:0"
       d="m 163.45599,880.88787 c 0.12286,-0.032 0.29332,-0.0299 0.37881,0.005 0.0855,0.0346 -0.015,0.0608 -0.22337,0.0582 -0.20835,-0.003 -0.27829,-0.0309 -0.15544,-0.0629 z"
       id="path5863"
       inkscape:connector-curvature="0" />
    <path
       style="opacity:1;fill:#55d400;fill-opacity:1;stroke:#000000;stroke-width:0.07601398;stroke-linejoin:miter;stroke-miterlimit:4;stroke-dasharray:none;stroke-opacity:0"
       d="m 160.07589,880.7147 c -0.69448,-0.0649 -1.71726,-0.19114 -2.27284,-0.28049 -0.9173,-0.14752 -0.68506,-0.15767 2.5267,-0.11043 5.20446,0.0765 9.28085,-0.22704 11.75705,-0.87562 2.93929,-0.76987 7.46378,-2.82075 10.21245,-4.62914 4.69982,-3.09207 8.10938,-6.86577 10.47949,-11.59869 0.44818,-0.89499 0.81612,-1.54202 0.81764,-1.43785 0.005,0.35646 -1.52734,3.34493 -2.33112,4.54568 -1.20554,1.80094 -2.26467,3.05693 -3.99459,4.73705 -5.2795,5.12751 -12.1005,8.38703 -19.80804,9.46557 -1.76897,0.24754 -5.66773,0.34461 -7.38674,0.18392 z"
       id="path5865"
       inkscape:connector-curvature="0" />
    <path
       style="opacity:1;fill:#55d400;fill-opacity:1;stroke:#000000;stroke-width:0.07601398;stroke-linejoin:miter;stroke-miterlimit:4;stroke-dasharray:none;stroke-opacity:0"
       d=""
       id="path5867"
       inkscape:connector-curvature="0"
       transform="translate(0,852.36214)" />
    <path
       style="opacity:1;fill:#55d400;fill-opacity:1;stroke:#000000;stroke-width:0.07601398;stroke-linejoin:miter;stroke-miterlimit:4;stroke-dasharray:none;stroke-opacity:0"
       d=""
       id="path5869"
       inkscape:connector-curvature="0"
       transform="translate(0,852.36214)" />
    <path
       style="opacity:1;fill:#55d400;fill-opacity:1;stroke:#000000;stroke-width:0.07601398;stroke-linejoin:miter;stroke-miterlimit:4;stroke-dasharray:none;stroke-opacity:0"
       d="m 194.33224,858.87829 c 0.0489,-0.45141 0.0877,-2.38333 0.0863,-4.29315 -0.003,-4.04632 -0.0821,-4.48093 -1.25423,-6.8882 -3.01821,-6.19857 -9.28837,-9.26633 -15.15821,-7.41636 -1.85042,0.58319 -3.12568,1.33725 -4.51412,2.66921 -0.46877,0.4497 -0.85232,0.75838 -0.85232,0.68595 0,-0.20047 1.61748,-1.68148 2.40039,-2.19785 0.98856,-0.65201 1.80062,-1.04018 3.02918,-1.44793 1.01292,-0.33619 1.19758,-0.35626 3.283,-0.35684 1.89945,-5.3e-4 2.35154,0.0389 3.21986,0.28059 1.29986,0.36185 3.30788,1.35452 4.36533,2.15801 2.93707,2.23169 5.06579,5.78825 5.75145,9.60923 0.28133,1.56773 0.28357,4.44394 0.005,6.06092 -0.2754,1.59711 -0.48132,2.24467 -0.36136,1.13642 l 0,0 z"
       id="path5871"
       inkscape:connector-curvature="0" />
    <path
       style="opacity:1;fill:#55d400;fill-opacity:1;stroke:#000000;stroke-width:0.07601398;stroke-linejoin:miter;stroke-miterlimit:4;stroke-dasharray:none;stroke-opacity:0"
       d=""
       id="path5873"
       inkscape:connector-curvature="0"
       transform="translate(0,852.36214)" />
    <path
       style="opacity:1;fill:#55d400;fill-opacity:1;stroke:#000000;stroke-width:0.07601398;stroke-linejoin:miter;stroke-miterlimit:4;stroke-dasharray:none;stroke-opacity:0"
       d=""
       id="path5875"
       inkscape:connector-curvature="0"
       transform="translate(0,852.36214)" />
    <path
       style="opacity:1;fill:#55d400;fill-opacity:1;stroke:#000000;stroke-width:0.07601398;stroke-linejoin:miter;stroke-miterlimit:4;stroke-dasharray:none;stroke-opacity:0"
       d="m 180.15268,839.80025 c 0.0695,-0.0237 0.80812,-0.0669 1.64149,-0.0959 0.83338,-0.029 1.37318,-0.0107 1.19956,0.0406 -0.30293,0.0895 -3.10028,0.14395 -2.84105,0.0553 z"
       id="path5877"
       inkscape:connector-curvature="0" />
    <path
       style="opacity:1;fill:#55d400;fill-opacity:1;stroke:#000000;stroke-width:0.07601398;stroke-linejoin:miter;stroke-miterlimit:4;stroke-dasharray:none;stroke-opacity:0"
       d=""
       id="path5879"
       inkscape:connector-curvature="0"
       transform="translate(0,852.36214)" />
    <path
       style="fill:none;fill-rule:evenodd;stroke:#000000;stroke-width:1px;stroke-linecap:butt;stroke-linejoin:miter;stroke-opacity:1"
       d="m 140,873.68962 c 5.02597,16.32321 4.64429,34.26248 -1.07143,50.35715 -3.16075,8.90025 -7.87438,17.18416 -11.07143,26.07143 -2.21876,6.16777 -3.70162,12.61097 -6.42857,18.5715 -2.43158,5.31491 -5.8384,10.1818 -10,14.2857"
       id="path5900"
       inkscape:path-effect="#path-effect5902"
       inkscape:original-d="m 140,873.68962 c -1.43278,16.57001 2.44036,33.96881 -1.07143,50.35715 -1.98176,9.24822 -7.16417,17.6057 -11.07143,26.07143 -2.71281,5.87775 -3.63377,12.5826 -6.42857,18.5715 -2.42538,5.1972 -7.77662,9.8389 -10,14.2857"
       inkscape:connector-curvature="0" />
    <path
       style="fill:none;fill-rule:evenodd;stroke:#000000;stroke-width:1px;stroke-linecap:butt;stroke-linejoin:miter;stroke-opacity:1"
       d="m 142.5,874.04677 c 11.72599,28.22272 11.59425,61.15772 -0.35714,89.28573 -2.5856,6.08529 -5.69613,11.94744 -9.28572,17.5"
       id="path5908"
       inkscape:path-effect="#path-effect5910"
       inkscape:original-d="m 142.5,874.04677 c 14.6012,30.68554 14.53871,59.49401 -0.35714,89.28573 -3.36777,6.7356 -9.28572,10.4697 -9.28572,17.5"
       inkscape:connector-curvature="0" />
    <path
       style="fill:none;fill-rule:evenodd;stroke:#000000;stroke-width:1px;stroke-linecap:butt;stroke-linejoin:miter;stroke-opacity:1"
       d="m 137.5,935.83248 -5,10"
       id="path5940"
       inkscape:path-effect="#path-effect5942"
       inkscape:original-d="m 137.5,935.83248 c -0.083,5.58062 -3.32708,8.69885 -5,10"
       inkscape:connector-curvature="0" />
    <path
       style="fill:none;fill-rule:evenodd;stroke:#000000;stroke-width:1px;stroke-linecap:butt;stroke-linejoin:miter;stroke-opacity:1"
       d="M 138.92857,945.1182 140,939.76105"
       id="path5944"
       inkscape:path-effect="#path-effect5946"
       inkscape:original-d="m 138.92857,945.1182 c -0.71746,-2.31539 0.663,-3.85958 1.07143,-5.35715"
       inkscape:connector-curvature="0" />
    <path
       style="opacity:1;fill:#ffffff;fill-opacity:1;stroke:#000000;stroke-width:4.71500015;stroke-linejoin:miter;stroke-miterlimit:4;stroke-dasharray:none;stroke-opacity:0"
       d="m 114.72759,980.4739 c 0,-0.195 0.31418,-0.6388 0.69817,-0.9863 1.21719,-1.1016 4.68615,-6.59108 6.30047,-9.97029 0.85618,-1.79224 2.70542,-6.79433 4.10942,-11.11576 2.98759,-9.19567 4.22303,-12.37904 8.17766,-21.07143 7.6173,-16.74307 9.57938,-24.31734 9.89926,-38.21428 0.18595,-8.07841 -0.28356,-13.38147 -1.73329,-19.57768 -1.36267,-5.82406 0.38699,-4.17074 2.51098,2.37272 2.35892,7.26725 3.80488,13.54644 4.91692,21.35223 0.79678,5.59284 0.90759,22.78436 0.1839,28.5313 -2.1196,16.83211 -7.91198,33.48668 -16.22157,46.64109 l -0.92387,1.4625 -5.65545,0.2427 c -3.1105,0.1334 -7.14206,0.3428 -8.95903,0.4652 -2.09736,0.1412 -3.30357,0.093 -3.30357,-0.132 z m 20.90019,-39.40857 c 2.07939,-4.19295 2.39963,-5.06905 1.9541,-5.34591 -0.43066,-0.26762 -1.02209,0.64277 -3.08381,4.74693 -1.40302,2.79293 -2.47835,5.19859 -2.38963,5.34591 0.49666,0.82473 1.28062,-0.23269 3.51934,-4.74693 z m 4.39522,2.02718 c 0.23038,-1.25032 0.41888,-2.53603 0.41888,-2.85714 0,-0.88238 -1.03149,-0.69965 -1.24048,0.21975 -0.99337,4.37024 -0.99889,4.91072 -0.0502,4.91072 0.27448,0 0.61793,-0.89564 0.87178,-2.27333 z"
       id="path5962"
       inkscape:connector-curvature="0" />
    <path
       style="fill:none;fill-rule:evenodd;stroke:#000000;stroke-width:1px;stroke-linecap:butt;stroke-linejoin:miter;stroke-opacity:1"
       d="m 130.71429,985.1182 c 3.91821,-0.5554 6.79527,-6.4286 10.35714,-6.4286 1.54722,0 -2.72437,4.9084 -2.5,5.3572 0.74667,1.4933 6.8058,-2.1429 7.5,-2.1429 0.0132,0 -1.62314,1.9483 -1.42857,2.1429 0.85673,0.8567 4.62035,-0.7143 5.71428,-0.7143 5.29229,0 -1.18842,0.3571 6.42857,0.3571 0.41938,0 2.09665,-0.7605 2.14286,-0.7143 1.07919,1.0792 -1.31032,4.5641 5,0.3572"
       id="path6574"
       inkscape:connector-curvature="0" />
    <text
       xml:space="preserve"
       style="font-style:normal;font-weight:normal;font-size:41.15547562px;line-height:134.00000334%;font-family:sans-serif;letter-spacing:0px;word-spacing:0px;fill:#000000;fill-opacity:1;stroke:none;stroke-width:1px;stroke-linecap:butt;stroke-linejoin:miter;stroke-opacity:1"
       x="27.26268"
       y="1070.9325"
       id="text4177-1-2"
       sodipodi:linespacing="134%"
       transform="scale(1.0288868,0.97192422)"><tspan
         sodipodi:role="line"
         id="tspan4179-2-9"
         x="27.26268"
         y="1070.9325"
         style="font-style:normal;font-variant:normal;font-weight:bold;font-stretch:normal;line-height:135.00000238%;font-family:sans-serif;-inkscape-font-specification:'sans-serif Bold';fill:#008000;stroke:#000000;stroke-opacity:1">GO GREEN</tspan></text>
  </g>
</svg>
