<?xml version="1.0" encoding="UTF-8" standalone="no"?>
<!-- Created with Inkscape (http://www.inkscape.org/) -->

<svg
   xmlns:dc="http://purl.org/dc/elements/1.1/"
   xmlns:cc="http://creativecommons.org/ns#"
   xmlns:rdf="http://www.w3.org/1999/02/22-rdf-syntax-ns#"
   xmlns:svg="http://www.w3.org/2000/svg"
   xmlns="http://www.w3.org/2000/svg"
   xmlns:sodipodi="http://sodipodi.sourceforge.net/DTD/sodipodi-0.dtd"
   xmlns:inkscape="http://www.inkscape.org/namespaces/inkscape"
   width="290"
   height="200"
   viewBox="0 0 290 200"
   id="svg2"
   version="1.1"
   inkscape:version="0.91 r13725"
   sodipodi:docname="whale.svg">
  <defs
     id="defs4" />
  <sodipodi:namedview
     id="base"
     pagecolor="#ffffff"
     bordercolor="#666666"
     borderopacity="1.0"
     inkscape:pageopacity="0.0"
     inkscape:pageshadow="2"
     inkscape:zoom="1.4"
     inkscape:cx="290.67623"
     inkscape:cy="110.30255"
     inkscape:document-units="px"
     inkscape:current-layer="layer1"
     showgrid="false"
     units="px"
     inkscape:window-width="1366"
     inkscape:window-height="706"
     inkscape:window-x="-8"
     inkscape:window-y="-8"
     inkscape:window-maximized="1" />
  <metadata
     id="metadata7">
    <rdf:RDF>
      <cc:Work
         rdf:about="">
        <dc:format>image/svg+xml</dc:format>
        <dc:type
           rdf:resource="http://purl.org/dc/dcmitype/StillImage" />
        <dc:title></dc:title>
      </cc:Work>
    </rdf:RDF>
  </metadata>
  <g
     inkscape:label="Layer 1"
     inkscape:groupmode="layer"
     id="layer1"
     transform="translate(0,-852.36216)">
    <g
       id="g4554"
       style="fill:#333333;fill-opacity:1"
       transform="translate(-79.999999,132.85714)">
      <flowRoot
         style="font-style:normal;font-weight:normal;font-size:40px;line-height:125%;font-family:sans-serif;letter-spacing:0px;word-spacing:0px;fill:#333333;fill-opacity:1;stroke:none;stroke-width:1px;stroke-linecap:butt;stroke-linejoin:miter;stroke-opacity:1"
         id="flowRoot4142"
         xml:space="preserve"><flowRegion
           id="flowRegion4144"><rect
             y="-80.832611"
             x="527.29962"
             height="55.558392"
             width="932.37079"
             id="rect4146"
             style="fill:#333333;fill-opacity:1" /></flowRegion><flowPara
           id="flowPara4148"></flowPara></flowRoot>      <path
         sodipodi:nodetypes="csssccssc"
         inkscape:connector-curvature="0"
         id="path4538"
         d="m 94.999997,742.36216 c 25.311683,-2.18045 62.357473,-10.16516 87.857143,-8.57143 75.27573,4.70473 125.23623,42.73344 152.14286,110 3.51262,8.78154 7.42445,26.96798 8.57143,34.28572 0,0 5.15981,24.07914 4.28571,20 C 335.8099,873.55266 304.77974,867.55355 290,860.2193 251.25131,840.84496 160.21169,878.8613 110.71429,862.36216 94.490541,856.95424 91.325955,832.36967 88.738155,806.84825 85.541286,775.32007 85.855248,742.36216 94.999997,742.36216 Z"
         style="fill:#333333;fill-opacity:1;fill-rule:evenodd;stroke:none;stroke-width:1px;stroke-linecap:butt;stroke-linejoin:miter;stroke-opacity:1" />
      <path
         inkscape:connector-curvature="0"
         id="path4544"
         d="m 225,850.2193 c -24.36599,15.87142 -54.04502,20.71429 -82.85714,20.71429 -4.35986,0 -11.56644,-1.38262 -15.71429,0 -0.20921,0.0697 -0.85376,1.2891 -1.42857,0.71428 -0.77804,-0.77804 -2.14286,-12.90709 -2.14286,-15"
         style="fill:#333333;fill-opacity:1;fill-rule:evenodd;stroke:none;stroke-width:1px;stroke-linecap:butt;stroke-linejoin:miter;stroke-opacity:1" />
      <path
         inkscape:connector-curvature="0"
         id="path4546"
         d="m 277.14286,779.50502 c 6.1593,2.01903 25.55747,-5.15682 27.85714,-2.85715 0.43248,0.43248 0,3.4752 0,4.28572 0,6.87416 2.14286,12.45058 2.14286,18.57143"
         style="fill:#333333;fill-opacity:1;fill-rule:evenodd;stroke:none;stroke-width:1px;stroke-linecap:butt;stroke-linejoin:miter;stroke-opacity:1" />
      <path
         inkscape:connector-curvature="0"
         id="path4552"
         d="m 331.42858,880.93359 c -8.35099,3.2171 -13.56489,8.9253 -20,12.14285 -2.11294,1.05648 -9.34308,10.65692 -5.71429,14.28572 2.6549,2.65489 22.93686,-13.39669 31.42858,-10 7.42479,2.46524 14.59567,7.82569 22.14285,12.85714 18.20276,12.13517 -3.27835,-39.11725 -27.85714,-29.28571 z"
         style="fill:#333333;fill-opacity:1;fill-rule:evenodd;stroke:none;stroke-width:1px;stroke-linecap:butt;stroke-linejoin:miter;stroke-opacity:1" />
    </g>
  </g>
</svg>
