<?xml version="1.0" encoding="UTF-8" standalone="no"?>
<!-- Created with Inkscape (http://www.inkscape.org/) -->

<svg
   xmlns:dc="http://purl.org/dc/elements/1.1/"
   xmlns:cc="http://creativecommons.org/ns#"
   xmlns:rdf="http://www.w3.org/1999/02/22-rdf-syntax-ns#"
   xmlns:svg="http://www.w3.org/2000/svg"
   xmlns="http://www.w3.org/2000/svg"
   xmlns:sodipodi="http://sodipodi.sourceforge.net/DTD/sodipodi-0.dtd"
   xmlns:inkscape="http://www.inkscape.org/namespaces/inkscape"
   width="100"
   height="100"
   viewBox="0 0 99.999997 99.999997"
   id="svg2"
   version="1.1"
   inkscape:version="0.91 r13725"
   sodipodi:docname="atom_on.svg">
  <defs
     id="defs4" />
  <sodipodi:namedview
     id="base"
     pagecolor="#ffffff"
     bordercolor="#666666"
     borderopacity="1.0"
     inkscape:pageopacity="0.0"
     inkscape:pageshadow="2"
     inkscape:zoom="3.959798"
     inkscape:cx="27.9053"
     inkscape:cy="73.786797"
     inkscape:document-units="px"
     inkscape:current-layer="layer1"
     showgrid="true"
     units="px"
     showguides="false"
     inkscape:window-width="1920"
     inkscape:window-height="1017"
     inkscape:window-x="-8"
     inkscape:window-y="-8"
     inkscape:window-maximized="1">
    <inkscape:grid
       type="xygrid"
       id="grid4138" />
  </sodipodi:namedview>
  <metadata
     id="metadata7">
    <rdf:RDF>
      <cc:Work
         rdf:about="">
        <dc:format>image/svg+xml</dc:format>
        <dc:type
           rdf:resource="http://purl.org/dc/dcmitype/StillImage" />
        <dc:title></dc:title>
      </cc:Work>
    </rdf:RDF>
  </metadata>
  <g
     inkscape:label="Layer 1"
     inkscape:groupmode="layer"
     id="layer1"
     transform="translate(0,-952.36223)">
    <ellipse
       style="opacity:1;fill:#48769A;fill-opacity:0.88627451;stroke:#ffffff;stroke-width:4.7135067;stroke-linecap:round;stroke-linejoin:miter;stroke-miterlimit:4;stroke-dasharray:none;stroke-dashoffset:0;stroke-opacity:1"
       id="path4136"
       cx="49.721218"
       cy="1004.4211"
       rx="26.529289"
       ry="26.529287" />
    <path
       style="opacity:1;fill:none;fill-opacity:0.88627451;stroke:#ffffff;stroke-width:2.32001138;stroke-linecap:round;stroke-linejoin:miter;stroke-miterlimit:4;stroke-dasharray:2.32001132, 4.64002261999999990;stroke-dashoffset:0;stroke-opacity:1"
       id="path4140"
       transform="matrix(0.75316337,-0.65783351,0.58495452,0.81106609,0,0)"
       sodipodi:type="arc"
       sodipodi:cx="-550.06903"
       sodipodi:cy="787.07501"
       sodipodi:rx="48.768833"
       sodipodi:ry="6.8162909"
       sodipodi:start="5.2922182"
       sodipodi:end="4.0680319"
       sodipodi:open="true"
       d="m -523.34951,781.3728 a 48.768833,6.8162909 0 0 1 20.23292,7.54517 48.768833,6.8162909 0 0 1 -45.37924,4.96979 48.768833,6.8162909 0 0 1 -47.57766,-4.55046 48.768833,6.8162909 0 0 1 16.70977,-7.71182" />
    <path
       d="m -600.34304,715.10962 a 48.768833,6.8162909 0 0 1 20.23292,7.54516 48.768833,6.8162909 0 0 1 -45.37924,4.96979 48.768833,6.8162909 0 0 1 -47.57766,-4.55046 48.768833,6.8162909 0 0 1 16.70977,-7.71181"
       sodipodi:open="true"
       sodipodi:end="4.0680319"
       sodipodi:start="5.2922182"
       sodipodi:ry="6.8162909"
       sodipodi:rx="48.768833"
       sodipodi:cy="720.81183"
       sodipodi:cx="-627.06256"
       sodipodi:type="arc"
       transform="matrix(-0.75316337,-0.65783351,-0.58495452,0.81106609,0,0)"
       id="path4144"
       style="opacity:1;fill:none;fill-opacity:0.88627451;stroke:#ffffff;stroke-width:2.32001138;stroke-linecap:round;stroke-linejoin:miter;stroke-miterlimit:4;stroke-dasharray:2.32001132, 4.64002261999999990;stroke-dashoffset:0;stroke-opacity:1" />
    <path
       d="m 151.68186,998.58551 a 48.768833,6.8162909 0 0 1 20.23292,7.54519 48.768833,6.8162909 0 0 1 -45.37924,4.9698 48.768833,6.8162909 0 0 1 -47.577656,-4.5505 48.768833,6.8162909 0 0 1 16.709772,-7.71181"
       sodipodi:open="true"
       sodipodi:end="4.0680319"
       sodipodi:start="5.2922182"
       sodipodi:ry="6.8162909"
       sodipodi:rx="48.768833"
       sodipodi:cy="1004.2877"
       sodipodi:cx="124.96234"
       sodipodi:type="arc"
       transform="matrix(0.99983925,-0.01792981,-0.07511306,0.99717502,0,0)"
       id="path4172"
       style="opacity:1;fill:none;fill-opacity:0.88627451;stroke:#ffffff;stroke-width:2.32001138;stroke-linecap:round;stroke-linejoin:miter;stroke-miterlimit:4;stroke-dasharray:2.32001132, 4.64002263999999980;stroke-dashoffset:0;stroke-opacity:1" />
    <path
       style="opacity:1;fill:none;fill-opacity:0.88627451;stroke:#ffffff;stroke-width:2.32001138;stroke-linecap:round;stroke-linejoin:miter;stroke-miterlimit:4;stroke-dasharray:2.32001132, 4.64002263999999980;stroke-dashoffset:0;stroke-opacity:1"
       id="path4174"
       transform="matrix(0.01792981,0.99983925,-0.99717502,-0.07511306,0,0)"
       sodipodi:type="arc"
       sodipodi:cx="999.33484"
       sodipodi:cy="-35.315945"
       sodipodi:rx="48.768833"
       sodipodi:ry="6.8162909"
       sodipodi:start="5.2922182"
       sodipodi:end="4.0680319"
       sodipodi:open="true"
       d="m 1026.0544,-41.018155 a 48.768833,6.8162909 0 0 1 20.2329,7.545166 48.768833,6.8162909 0 0 1 -45.3793,4.969788 48.768833,6.8162909 0 0 1 -47.57762,-4.550459 48.768833,6.8162909 0 0 1 16.70977,-7.711815" />
    <circle
       style="opacity:1;fill:#48769A;fill-opacity:0.88627451;stroke:#ffffff;stroke-width:1.88540268;stroke-linecap:round;stroke-linejoin:miter;stroke-miterlimit:4;stroke-dasharray:none;stroke-dashoffset:0;stroke-opacity:1"
       id="path4142"
       transform="matrix(-0.68951282,-0.72427348,0.72427348,-0.68951282,0,0)"
       cx="-763.17914"
       cy="-634.80231"
       r="4.7135067" />
    <circle
       style="opacity:1;fill:#48769A;fill-opacity:1;stroke:#ffffff;stroke-width:1.88540268;stroke-linecap:round;stroke-linejoin:miter;stroke-miterlimit:4;stroke-dasharray:none;stroke-dashoffset:0;stroke-opacity:1"
       id="path4142-4"
       transform="matrix(-0.68951282,-0.72427348,0.72427348,-0.68951282,0,0)"
       cx="-743.81683"
       cy="-676.81451"
       r="4.7135067" />
    <circle
       r="4.7135067"
       cy="-658.54938"
       cx="-719.99976"
       transform="matrix(-0.68951282,-0.72427348,0.72427348,-0.68951282,0,0)"
       id="circle4182"
       style="opacity:1;fill:#48769A;fill-opacity:0.88627451;stroke:#ffffff;stroke-width:1.88540268;stroke-linecap:round;stroke-linejoin:miter;stroke-miterlimit:4;stroke-dasharray:none;stroke-dashoffset:0;stroke-opacity:1" />
  </g>
</svg>
